<svg width="620" height="418" viewBox="0 0 620 418" fill="none" xmlns="http://www.w3.org/2000/svg">
<path d="M266.348 304.935L250.156 375.232H257.347L273.739 304.935H266.348Z" fill="#E0E0E0"/>
<path d="M296.188 304.935L312.346 375.232H318.911L303.286 304.935H296.188Z" fill="#E0E0E0"/>
<path d="M255.312 251.618L264.622 300.49H275.208L265.264 251.618H255.312Z" fill="#E0E0E0"/>
<path d="M93.1393 304.935L79.8008 375.533H86.591L100.522 304.935H93.1393Z" fill="#E0E0E0"/>
<path d="M121.184 304.936L136.432 375.534H143.139L128.416 304.936H121.184Z" fill="#E0E0E0"/>
<path d="M82.1016 251.618L91.411 300.491H101.988L92.045 251.618H82.1016Z" fill="#E0E0E0"/>
<path d="M61.1484 247.173L63.0504 256.063H275.525L273.039 247.173H61.1484Z" fill="#EBEBEB"/>
<path d="M65.2109 264.428L67.4549 273.318H278.486L276.568 264.428H65.2109Z" fill="#EBEBEB"/>
<path d="M69.4062 282.292L71.4917 291.182H281.872L279.879 282.292H69.4062Z" fill="#EBEBEB"/>
<path d="M312.348 300.489H85.4922V309.371H312.348V300.489Z" fill="#EBEBEB"/>
<path d="M85.4922 118.771H138.538C138.538 118.771 133.841 110.239 120.186 111.481C107.139 112.666 106.48 107.311 99.8485 106.619C93.2167 105.927 87.7028 111.039 85.4922 118.771Z" fill="#EBEBEB"/>
<path d="M180.777 83.3989H302.301C302.301 83.3989 291.557 63.8833 260.267 66.6939C230.394 69.4128 228.876 57.0779 213.686 55.5433C198.495 54.0088 185.841 65.6848 180.777 83.3989Z" fill="#E0E0E0"/>
<path d="M495.266 83.7412H403.172V375.533H495.266V83.7412Z" fill="#F5F5F5"/>
<path d="M495.266 83.7412H449.219V374.732H495.266V83.7412Z" fill="#EBEBEB"/>
<path d="M446.196 55.0938H413.68V83.7416H446.196V55.0938Z" fill="#F5F5F5"/>
<path d="M446.207 55.0938H438.457V83.7416H446.207V55.0938Z" fill="#EBEBEB"/>
<path d="M395.496 83.7418V82.0654H497.95V83.7418" fill="#E0E0E0"/>
<path d="M429.139 96.2344H421.348V112.664H429.139V96.2344Z" fill="#FAFAFA"/>
<path d="M449.219 119.111C449.219 119.286 438.908 119.428 426.195 119.428C413.482 119.428 403.172 119.286 403.172 119.111C403.172 118.936 413.474 118.803 426.195 118.803C438.917 118.803 449.219 118.928 449.219 119.111Z" fill="#E0E0E0"/>
<path d="M475.588 96.2344H467.797V112.664H475.588V96.2344Z" fill="#E0E0E0"/>
<path d="M495.656 119.111C495.656 119.286 485.354 119.428 472.641 119.428C459.928 119.428 449.617 119.286 449.617 119.111C449.617 118.936 459.919 118.803 472.641 118.803C485.362 118.803 495.656 118.928 495.656 119.111Z" fill="#E0E0E0"/>
<path d="M475.588 128.861H467.797V145.291H475.588V128.861Z" fill="#E0E0E0"/>
<path d="M495.656 151.738C495.656 151.913 485.354 152.055 472.641 152.055C459.928 152.055 449.617 151.913 449.617 151.738C449.617 151.563 459.919 151.43 472.641 151.43C485.362 151.43 495.656 151.571 495.656 151.738Z" fill="#E0E0E0"/>
<path d="M475.588 162.472H467.797V178.901H475.588V162.472Z" fill="#E0E0E0"/>
<path d="M495.656 185.349C495.656 185.524 485.354 185.666 472.641 185.666C459.928 185.666 449.617 185.524 449.617 185.349C449.617 185.173 459.919 185.04 472.641 185.04C485.362 185.04 495.656 185.182 495.656 185.349Z" fill="#E0E0E0"/>
<path d="M475.588 196.081H467.797V212.511H475.588V196.081Z" fill="#E0E0E0"/>
<path d="M495.656 218.958C495.656 219.133 485.354 219.275 472.641 219.275C459.928 219.275 449.617 219.133 449.617 218.958C449.617 218.783 459.919 218.649 472.641 218.649C485.362 218.649 495.656 218.791 495.656 218.958Z" fill="#E0E0E0"/>
<path d="M475.588 228.733H467.797V245.163H475.588V228.733Z" fill="#E0E0E0"/>
<path d="M495.656 251.609C495.656 251.784 485.354 251.926 472.641 251.926C459.928 251.926 449.617 251.784 449.617 251.609C449.617 251.434 459.919 251.301 472.641 251.301C485.362 251.301 495.656 251.434 495.656 251.609Z" fill="#E0E0E0"/>
<path d="M475.588 261.509H467.797V277.939H475.588V261.509Z" fill="#E0E0E0"/>
<path d="M475.588 294.719H467.797V311.149H475.588V294.719Z" fill="#E0E0E0"/>
<path d="M495.656 284.394C495.656 284.569 485.354 284.703 472.641 284.703C459.928 284.703 449.617 284.569 449.617 284.394C449.617 284.219 459.919 284.077 472.641 284.077C485.362 284.077 495.656 284.219 495.656 284.394Z" fill="#E0E0E0"/>
<path d="M429.139 129.354H421.348V145.783H429.139V129.354Z" fill="#FAFAFA"/>
<path d="M449.219 152.238C449.219 152.413 438.908 152.555 426.195 152.555C413.482 152.555 403.172 152.413 403.172 152.238C403.172 152.063 413.474 151.921 426.195 151.921C438.917 151.921 449.219 152.063 449.219 152.238Z" fill="#E0E0E0"/>
<path d="M429.139 162.479H421.348V178.909H429.139V162.479Z" fill="#FAFAFA"/>
<path d="M449.219 185.365C449.219 185.54 438.908 185.673 426.195 185.673C413.482 185.673 403.172 185.54 403.172 185.365C403.172 185.19 413.474 185.048 426.195 185.048C438.917 185.048 449.219 185.19 449.219 185.365Z" fill="#E0E0E0"/>
<path d="M429.139 195.605H421.348V212.035H429.139V195.605Z" fill="#FAFAFA"/>
<path d="M449.219 218.491C449.219 218.658 438.908 218.799 426.195 218.799C413.482 218.799 403.172 218.658 403.172 218.491C403.172 218.324 413.474 218.174 426.195 218.174C438.917 218.174 449.219 218.316 449.219 218.491Z" fill="#E0E0E0"/>
<path d="M429.139 228.733H421.348V245.163H429.139V228.733Z" fill="#FAFAFA"/>
<path d="M449.219 251.609C449.219 251.784 438.908 251.926 426.195 251.926C413.482 251.926 403.172 251.784 403.172 251.609C403.172 251.434 413.474 251.301 426.195 251.301C438.917 251.301 449.219 251.434 449.219 251.609Z" fill="#E0E0E0"/>
<path d="M429.139 261.851H421.348V278.28H429.139V261.851Z" fill="#FAFAFA"/>
<path d="M449.219 284.735C449.219 284.91 438.908 285.052 426.195 285.052C413.482 285.052 403.172 284.91 403.172 284.735C403.172 284.56 413.474 284.418 426.195 284.418C438.917 284.418 449.219 284.56 449.219 284.735Z" fill="#E0E0E0"/>
<path d="M429.139 294.978H421.348V311.407H429.139V294.978Z" fill="#FAFAFA"/>
<path d="M570.155 247.856H502.453V376.326H570.155V247.856Z" fill="#E0E0E0"/>
<path d="M570.163 247.856H538.414V376.326H570.163V247.856Z" fill="#EBEBEB"/>
<path d="M522.742 259.94H516.652V274.727H522.742V259.94Z" fill="#F5F5F5"/>
<path d="M522.742 317.812H516.652V332.599H522.742V317.812Z" fill="#F5F5F5"/>
<path d="M538.415 280.532C538.415 280.657 530.365 280.758 520.438 280.758C510.511 280.758 502.453 280.657 502.453 280.532C502.453 280.407 510.503 280.299 520.438 280.299C530.373 280.299 538.415 280.407 538.415 280.532Z" fill="#F5F5F5"/>
<path d="M522.742 289.097H516.652V303.883H522.742V289.097Z" fill="#F5F5F5"/>
<path d="M538.415 309.689C538.415 309.814 530.365 309.914 520.438 309.914C510.511 309.914 502.453 309.814 502.453 309.689C502.453 309.563 510.503 309.455 520.438 309.455C530.373 309.455 538.415 309.555 538.415 309.689Z" fill="#F5F5F5"/>
<path d="M551.246 259.94H545.156V274.727H551.246V259.94Z" fill="#E0E0E0"/>
<path d="M564.449 259.94H558.359V274.727H564.449V259.94Z" fill="#E0E0E0"/>
<path d="M551.246 287.996H545.156V302.783H551.246V287.996Z" fill="#E0E0E0"/>
<path d="M564.449 287.996H558.359V302.783H564.449V287.996Z" fill="#E0E0E0"/>
<path d="M551.246 316.061H545.156V330.847H551.246V316.061Z" fill="#E0E0E0"/>
<path d="M564.449 316.061H558.359V330.847H564.449V316.061Z" fill="#E0E0E0"/>
<path d="M575.255 244.746H497.367V247.965H575.255V244.746Z" fill="#E0E0E0"/>
<path d="M570.633 248.265C570.633 248.399 555.501 248.499 536.84 248.499C518.179 248.499 503.039 248.399 503.039 248.265C503.039 248.132 518.171 248.04 536.84 248.04C555.509 248.04 570.633 248.14 570.633 248.265Z" fill="#EBEBEB"/>
<path d="M568.637 375.583C568.637 375.7 454.096 375.8 312.827 375.8C171.558 375.8 57 375.7 57 375.583C57 375.466 171.516 375.366 312.827 375.366C454.137 375.366 568.637 375.466 568.637 375.583Z" fill="#263238"/>
<path d="M404.155 360.195H393.469V375.583H404.155V360.195Z" fill="#263238"/>
<path d="M336.769 360.004C336.769 360.004 433.534 360.446 433.534 360.004V209.175H362.628C359.008 209.176 355.423 209.895 352.083 211.291C348.742 212.687 345.712 214.732 343.167 217.308C340.623 219.883 338.616 222.938 337.261 226.295C335.906 229.652 335.231 233.244 335.275 236.864L336.769 360.004Z" fill="#455A64"/>
<path d="M433.775 209.175H436.102C441.078 209.175 445.85 211.151 449.368 214.669C452.887 218.186 454.863 222.957 454.863 227.932V360.196H414.973V227.94C414.972 225.473 415.457 223.029 416.402 220.75C417.347 218.471 418.733 216.4 420.479 214.657C422.226 212.914 424.299 211.532 426.581 210.592C428.862 209.651 431.307 209.17 433.775 209.175Z" fill="#263238"/>
<path d="M401.818 247.222H351.309V265.37H401.818V247.222Z" fill="#263238"/>
<path d="M347.44 358.303H336.754V375.583H347.44V358.303Z" fill="#455A64"/>
<path d="M414.44 360.195H403.754V375.583H414.44V360.195Z" fill="#455A64"/>
<path d="M453.213 360.195H442.527V375.583H453.213V360.195Z" fill="#263238"/>
<path d="M371.21 209.175L370.434 209.225C369.917 209.225 369.149 209.225 368.148 209.383C365.218 209.656 362.356 210.432 359.69 211.677C357.773 212.611 355.993 213.803 354.401 215.221C352.52 216.922 350.898 218.889 349.588 221.059C348.08 223.569 346.955 226.29 346.251 229.133C345.457 232.333 345.12 235.629 345.25 238.924C345.25 266.763 345.292 305.594 345.317 349.562L345.108 349.354H406.838L406.629 349.562C406.629 307.795 406.688 271.166 406.704 244.97C406.704 238.423 406.704 232.535 406.771 227.373C407.105 222.21 408.331 217.824 410.216 214.721C411.035 213.34 412.107 212.126 413.378 211.143C414.317 210.437 415.377 209.909 416.506 209.584L417.148 209.4L417.715 209.3C418.01 209.242 418.308 209.205 418.608 209.192H419.334L418.616 209.275C418.316 209.291 418.017 209.333 417.724 209.4L417.157 209.509L416.523 209.692C415.414 210.035 414.374 210.571 413.453 211.277C412.203 212.258 411.15 213.466 410.35 214.838C408.498 217.924 407.296 222.294 407.013 227.423C406.946 232.569 407.013 238.473 407.013 245.012C407.013 271.208 407.055 307.837 407.088 349.604V349.821H344.941V349.604C344.941 305.635 344.991 266.804 345.016 238.965C344.895 235.647 345.243 232.328 346.051 229.108C346.78 226.245 347.933 223.507 349.471 220.984C350.8 218.793 352.444 216.809 354.351 215.096C355.965 213.678 357.763 212.486 359.698 211.552C362.385 210.317 365.268 209.56 368.215 209.317C368.975 209.239 369.737 209.201 370.501 209.2L371.21 209.175Z" fill="#263238"/>
<path d="M405.455 281.483C405.455 281.608 391.883 281.7 375.149 281.7C358.415 281.7 344.852 281.608 344.852 281.483C344.852 281.358 358.415 281.266 375.149 281.266C391.883 281.266 405.455 281.366 405.455 281.483Z" fill="#263238"/>
<path d="M350.258 292.575H350.491H351.209H354.012L364.597 292.525L401.819 292.425H402.019V292.625C402.019 302.9 402.019 314.242 402.019 326.16L401.793 326.385H374.015H350.241H350.074V326.219C350.074 315.969 350.141 307.57 350.166 301.707C350.166 298.822 350.166 296.562 350.166 295.035C350.166 294.285 350.166 293.701 350.166 293.292C350.166 292.884 350.166 292.709 350.166 292.709C350.166 292.709 350.166 292.925 350.166 293.326C350.166 293.726 350.166 294.335 350.166 295.102C350.166 296.67 350.166 298.947 350.208 301.849C350.208 307.687 350.258 316.027 350.299 326.252L350.124 326.077H373.898H401.677C401.869 325.877 401.426 326.344 401.468 326.285C401.468 314.368 401.468 303.025 401.468 292.75L401.668 292.95L364.581 292.85L353.945 292.8H351.109H350.366L350.258 292.575Z" fill="#263238"/>
<path d="M397.253 228.641H355.869C354.897 228.641 354.109 229.428 354.109 230.4V238.407C354.109 239.379 354.897 240.166 355.869 240.166H397.253C398.225 240.166 399.013 239.379 399.013 238.407V230.4C399.013 229.428 398.225 228.641 397.253 228.641Z" fill="#FF725E"/>
<path d="M367.981 238.414V232.273H368.516L371.323 237.063H371.042L373.823 232.273H374.358V238.414H373.736V233.247H373.885L371.323 237.633H371.016L368.437 233.247H368.603V238.414H367.981ZM375.377 238.414L378.184 232.273H378.825L381.632 238.414H380.948L378.368 232.65H378.632L376.052 238.414H375.377ZM376.482 236.774L376.675 236.247H380.246L380.439 236.774H376.482ZM382.648 238.414V232.273H383.297V238.414H382.648ZM367.981 249.414V243.273H368.63V248.853H372.069V249.414H367.981Z" fill="#263238"/>
<path d="M449.216 353.649C449.216 353.649 449.216 353.358 449.216 352.815C449.216 352.273 449.216 351.456 449.216 350.405C449.216 348.278 449.216 345.168 449.216 341.164C449.216 333.141 449.216 321.565 449.149 307.254C449.082 292.943 449.107 275.929 449.082 257.031C449.082 252.305 449.082 247.467 449.082 242.519V235.013C449.082 232.511 449.257 229.917 448.356 227.507C447.52 225.076 445.999 222.939 443.977 221.352C441.919 219.738 439.428 218.774 436.82 218.583C436.169 218.533 435.51 218.516 434.843 218.525C434.175 218.533 433.516 218.566 432.857 218.591C431.543 218.735 430.255 219.058 429.028 219.551C427.808 220.084 426.666 220.779 425.633 221.619C424.608 222.487 423.717 223.501 422.989 224.63C422.097 226.015 421.469 227.553 421.137 229.167C420.887 230.791 420.801 232.437 420.878 234.079V243.903C420.878 250.403 420.878 256.764 420.878 262.985C420.878 275.42 420.878 287.271 420.878 298.33C420.878 320.448 420.828 339.405 420.812 353.624L420.687 353.499L441.75 353.566H447.364H448.815H449.316H448.84H447.414H441.825L420.687 353.633H420.428V353.516C420.428 339.296 420.386 320.34 420.361 298.222C420.361 287.163 420.361 275.312 420.361 262.877C420.361 256.655 420.361 250.295 420.361 243.795V234.104C420.28 232.431 420.369 230.754 420.628 229.1C420.97 227.43 421.617 225.838 422.538 224.404C423.297 223.247 424.215 222.202 425.266 221.302C426.333 220.439 427.512 219.724 428.77 219.175C430.036 218.666 431.367 218.335 432.724 218.191C433.399 218.191 434.083 218.108 434.751 218.124C435.418 218.141 436.086 218.124 436.761 218.174C439.429 218.378 441.979 219.36 444.095 220.998C446.211 222.636 447.8 224.858 448.665 227.39C449.089 228.622 449.331 229.909 449.382 231.21C449.441 232.503 449.382 233.762 449.382 235.03V242.536C449.382 247.495 449.382 252.343 449.382 257.081C449.382 276.012 449.332 293.068 449.316 307.387C449.299 321.707 449.266 333.241 449.241 341.265C449.241 345.251 449.241 348.345 449.241 350.439C449.241 351.481 449.241 352.273 449.241 352.824C449.241 353.374 449.216 353.649 449.216 353.649Z" fill="#455A64"/>
<path d="M454.112 280.983C454.112 281.099 445.362 281.2 434.576 281.2C423.79 281.2 415.039 281.099 415.039 280.983C415.039 280.866 423.781 280.766 434.576 280.766C445.37 280.766 454.112 280.858 454.112 280.983Z" fill="#455A64"/>
<path d="M199.911 166.974C200.927 167.053 201.948 166.925 202.914 166.599C203.879 166.274 204.769 165.757 205.53 165.079C206.29 164.402 206.907 163.578 207.342 162.657C207.777 161.736 208.021 160.736 208.061 159.719C208.22 155.599 208.361 151.429 208.361 151.429C208.361 151.429 214.618 150.845 215.035 144.665C215.452 138.485 215.302 124.207 215.302 124.207C211.877 122.482 208.054 121.703 204.227 121.947C200.399 122.192 196.707 123.453 193.53 125.6L192.57 126.25L192.896 159.51C192.916 161.407 193.648 163.227 194.948 164.61C196.247 165.993 198.019 166.836 199.911 166.974Z" fill="#B78876"/>
<path d="M212.392 135.09C212.266 134.964 212.18 134.804 212.146 134.629C212.111 134.454 212.13 134.273 212.198 134.109C212.266 133.945 212.382 133.804 212.53 133.705C212.678 133.606 212.852 133.554 213.03 133.554C213.208 133.554 213.382 133.606 213.53 133.705C213.678 133.804 213.794 133.945 213.862 134.109C213.93 134.273 213.948 134.454 213.914 134.629C213.879 134.804 213.794 134.964 213.668 135.09C213.498 135.258 213.269 135.352 213.03 135.352C212.791 135.352 212.562 135.258 212.392 135.09Z" fill="#263238"/>
<path d="M214.802 134.049C214.702 134.149 214.126 133.64 213.267 133.59C212.408 133.54 211.774 133.932 211.682 133.815C211.591 133.699 211.749 133.582 212.033 133.39C212.411 133.145 212.86 133.034 213.309 133.073C213.758 133.106 214.185 133.281 214.527 133.573C214.777 133.799 214.852 133.999 214.802 134.049Z" fill="#263238"/>
<path d="M204.314 133.94C204.459 134.043 204.57 134.186 204.633 134.353C204.697 134.519 204.709 134.7 204.67 134.873C204.63 135.047 204.541 135.205 204.411 135.327C204.282 135.45 204.12 135.531 203.944 135.561C203.769 135.591 203.589 135.569 203.426 135.497C203.263 135.425 203.126 135.306 203.031 135.156C202.935 135.005 202.887 134.83 202.891 134.652C202.895 134.475 202.952 134.302 203.054 134.156C203.195 133.964 203.405 133.833 203.64 133.793C203.875 133.752 204.117 133.805 204.314 133.94Z" fill="#263238"/>
<path d="M205.51 134.239C205.402 134.339 204.826 133.83 203.975 133.772C203.124 133.713 202.474 134.122 202.39 134.005C202.307 133.889 202.457 133.764 202.732 133.58C203.114 133.339 203.563 133.227 204.014 133.26C204.464 133.293 204.892 133.469 205.235 133.764C205.477 133.989 205.56 134.189 205.51 134.239Z" fill="#263238"/>
<path d="M208.546 140.853C208.998 140.705 209.472 140.638 209.947 140.653C210.164 140.653 210.347 140.603 210.372 140.478C210.389 140.256 210.346 140.035 210.247 139.836C210.064 139.252 209.88 138.668 209.68 138.059C209.135 136.554 208.741 134.997 208.504 133.414C209.209 134.855 209.768 136.364 210.172 137.917C210.356 138.535 210.531 139.118 210.698 139.702C210.827 139.997 210.851 140.327 210.765 140.636C210.727 140.718 210.671 140.79 210.602 140.848C210.533 140.906 210.451 140.947 210.364 140.97C210.237 140.985 210.108 140.985 209.98 140.97C209.499 141.014 209.013 140.975 208.546 140.853Z" fill="#263238"/>
<path d="M205.701 141.629C206.21 141.854 208.07 143.08 209.805 143.097C209.49 143.527 209.037 143.838 208.522 143.978C208.006 144.117 207.459 144.077 206.969 143.864C205.159 143.113 205.701 141.629 205.701 141.629Z" fill="white"/>
<path d="M208.386 151.337C205.525 151.219 202.766 150.249 200.461 148.552C200.461 148.552 202.129 153.122 208.302 152.947L208.386 151.337Z" fill="#A36957"/>
<path d="M192.943 133.889C192.946 133.648 192.854 133.415 192.687 133.241C192.52 133.066 192.292 132.964 192.051 132.955C190.899 132.955 189.006 133.38 188.831 136.566C188.58 141.112 192.952 139.977 193.002 139.852C193.052 139.727 192.96 135.657 192.943 133.889Z" fill="#B78876"/>
<path d="M191.973 138.06C191.973 138.06 191.89 138.11 191.756 138.168C191.565 138.241 191.355 138.241 191.164 138.168C190.876 137.969 190.646 137.696 190.5 137.377C190.353 137.059 190.294 136.707 190.33 136.359C190.343 135.969 190.443 135.587 190.622 135.241C190.671 135.101 190.754 134.976 190.863 134.876C190.972 134.775 191.104 134.703 191.247 134.666C191.34 134.645 191.437 134.658 191.521 134.702C191.605 134.746 191.671 134.819 191.706 134.907C191.756 135.032 191.706 135.124 191.706 135.133C191.706 135.141 191.806 135.066 191.781 134.874C191.763 134.762 191.707 134.659 191.623 134.582C191.563 134.531 191.494 134.492 191.42 134.468C191.346 134.443 191.267 134.434 191.189 134.44C191.006 134.471 190.833 134.547 190.687 134.662C190.541 134.778 190.427 134.928 190.355 135.099C190.139 135.482 190.019 135.911 190.004 136.35C189.96 136.754 190.036 137.162 190.223 137.522C190.41 137.883 190.7 138.18 191.055 138.377C191.175 138.421 191.304 138.438 191.431 138.425C191.559 138.412 191.681 138.37 191.79 138.302C191.956 138.168 191.99 138.11 191.973 138.06Z" fill="#A36957"/>
<path d="M214.022 122.572C208.946 120.722 203.445 120.369 198.173 121.555C198.173 121.555 192.893 123.398 192.617 126.242C192.473 128.567 192.495 130.9 192.684 133.222H193.018L193.068 137.985H194.986L195.253 131.546C195.253 131.546 198.899 129.044 198.974 125.116C200.751 124.882 209.459 123.857 215.399 125.883V124.499C215.391 124.076 215.255 123.666 215.009 123.322C214.764 122.979 214.42 122.717 214.022 122.572Z" fill="#263238"/>
<path d="M204.784 131.254C204.784 131.379 204.167 131.387 203.466 131.554C202.765 131.721 202.223 131.963 202.148 131.863C202.073 131.763 202.573 131.312 203.366 131.129C204.158 130.945 204.809 131.137 204.784 131.254Z" fill="#263238"/>
<path d="M213.984 129.903C213.909 130.003 213.509 129.836 213.008 129.903C212.508 129.97 212.174 130.237 212.074 130.162C211.974 130.087 212.266 129.57 212.908 129.47C213.55 129.369 214.068 129.82 213.984 129.903Z" fill="#263238"/>
<path d="M192.497 128.102C192.196 124.891 192.714 122.414 194.065 120.837C194.865 120.016 195.864 119.417 196.965 119.098C198.066 118.779 199.232 118.752 200.346 119.019C201.041 119.362 201.783 119.599 202.549 119.72C203.808 119.72 204.751 118.661 205.702 117.835C206.43 117.1 207.42 116.683 208.455 116.676C208.707 116.687 208.955 116.75 209.183 116.86C209.41 116.97 209.613 117.126 209.779 117.317C209.944 117.508 210.069 117.731 210.145 117.972C210.222 118.213 210.248 118.467 210.223 118.719C211.075 118.332 211.986 118.092 212.917 118.01C213.383 117.975 213.85 118.046 214.283 118.217C214.717 118.389 215.106 118.658 215.42 119.003C215.713 119.358 215.866 119.808 215.852 120.268C215.839 120.728 215.658 121.167 215.345 121.505C215.7 121.22 216.141 121.066 216.596 121.066C217.051 121.066 217.492 121.22 217.847 121.505C218.186 121.814 218.424 122.218 218.528 122.665C218.632 123.112 218.598 123.579 218.431 124.007C218.248 124.431 217.955 124.8 217.583 125.075C217.211 125.351 216.773 125.523 216.313 125.575C215.855 125.615 215.394 125.556 214.962 125.4C214.53 125.245 214.137 124.997 213.81 124.674L211.157 123.573L198.386 124.307L192.497 128.102Z" fill="#263238"/>
<path d="M198.752 126.61C198.802 126.139 199.029 125.706 199.387 125.396C199.744 125.087 200.206 124.924 200.679 124.942C201.634 125.013 202.535 125.41 203.231 126.067C203.913 126.725 204.659 127.312 205.459 127.819C206.403 128.306 207.477 128.484 208.529 128.328C209.575 128.171 210.572 127.774 211.44 127.168C212.413 127.702 213.493 128.01 214.601 128.069C215.348 128.151 216.1 127.972 216.729 127.56C217.305 127.064 217.683 126.377 217.796 125.625C217.954 125.026 217.931 124.393 217.73 123.807C217.474 123.245 217.032 122.789 216.478 122.515C215.931 122.245 215.354 122.038 214.76 121.897L199.569 122.273L197.367 125.409L198.752 126.61Z" fill="#263238"/>
<path d="M239.293 372.055L239.727 364.591L225.763 363.682L225.004 374.59L225.838 374.699C229.684 375.166 245.408 376.792 248.036 376.183C250.989 375.499 239.293 372.055 239.293 372.055Z" fill="#FF725E"/>
<g opacity="0.5">
<path d="M230.074 374.807C229.942 373.617 229.378 372.516 228.489 371.713C227.611 370.921 226.469 370.484 225.286 370.487L225.027 374.39L230.074 374.807Z" fill="white"/>
</g>
<g opacity="0.4">
<path d="M244.991 373.94C244.991 373.94 249.078 375.416 248.511 376.066C247.944 376.717 232.003 375.666 225.004 374.59V374.282L243.598 375.658C243.598 375.658 244.182 373.923 244.991 373.94Z" fill="white"/>
</g>
<path d="M224.828 374.257C224.907 374.277 224.988 374.291 225.07 374.299L225.754 374.382L228.257 374.657C230.4 374.882 233.362 375.141 236.598 375.358C239.835 375.575 242.846 375.708 244.99 375.775L247.543 375.833H248.469C248.391 375.821 248.313 375.821 248.235 375.833H247.543L244.999 375.716C242.846 375.616 239.885 375.466 236.657 375.249C233.429 375.032 230.417 374.791 228.315 374.599L225.812 374.374L225.12 374.324L224.828 374.257Z" fill="#263238"/>
<path d="M243.625 375.875C243.764 375.463 243.949 375.069 244.176 374.699C244.449 374.356 244.762 374.048 245.11 373.781C244.68 373.939 244.308 374.224 244.043 374.598C243.778 374.971 243.632 375.417 243.625 375.875Z" fill="#263238"/>
<path d="M239.633 373.515C239.675 373.515 239.883 373.314 240.108 373.006C240.334 372.697 240.492 372.43 240.45 372.405C240.409 372.38 240.2 372.597 239.975 372.906C239.817 373.081 239.701 373.289 239.633 373.515Z" fill="#263238"/>
<path d="M238.576 372.839C238.576 372.881 238.843 372.748 239.093 372.547C239.343 372.347 239.535 372.155 239.502 372.114C239.468 372.072 239.243 372.214 238.993 372.414C238.743 372.614 238.517 372.806 238.576 372.839Z" fill="#263238"/>
<path d="M237.914 371.479C238.143 371.577 238.391 371.625 238.64 371.621C238.881 371.676 239.132 371.676 239.374 371.621C239.145 371.524 238.897 371.475 238.648 371.479C238.406 371.425 238.156 371.425 237.914 371.479Z" fill="#263238"/>
<path d="M237.742 370.528C237.982 370.712 238.274 370.814 238.576 370.82C238.854 370.889 239.146 370.868 239.411 370.762C238.853 370.694 238.297 370.617 237.742 370.528Z" fill="#263238"/>
<path d="M240.195 372.331C240.488 372.4 240.79 372.417 241.088 372.381C241.417 372.362 241.744 372.312 242.064 372.23C242.256 372.188 242.443 372.127 242.623 372.047C242.733 371.991 242.819 371.896 242.865 371.78C242.882 371.714 242.88 371.645 242.86 371.58C242.839 371.515 242.8 371.457 242.748 371.413C242.416 371.228 242.031 371.162 241.656 371.226C241.281 371.289 240.94 371.479 240.687 371.763C240.533 371.927 240.419 372.124 240.354 372.339C240.32 372.415 240.305 372.498 240.312 372.581C240.423 372.31 240.578 372.059 240.771 371.839C241.001 371.614 241.29 371.46 241.605 371.396C241.966 371.301 242.35 371.352 242.673 371.538C242.806 371.655 242.74 371.813 242.573 371.897C242.408 371.979 242.235 372.041 242.056 372.08C241.747 372.167 241.432 372.228 241.113 372.264C240.537 372.322 240.195 372.297 240.195 372.331Z" fill="#263238"/>
<path d="M240.423 372.389C240.548 372.209 240.601 371.989 240.573 371.772C240.561 371.533 240.489 371.3 240.364 371.096C240.298 370.958 240.198 370.839 240.072 370.751C239.946 370.663 239.8 370.61 239.647 370.596C239.555 370.608 239.472 370.656 239.416 370.73C239.36 370.803 239.335 370.896 239.347 370.988C239.359 371.134 239.402 371.276 239.472 371.405C239.579 371.609 239.71 371.8 239.864 371.972C239.991 372.142 240.157 372.279 240.348 372.372C240.348 372.372 240.181 372.197 239.956 371.897C239.822 371.72 239.707 371.53 239.614 371.33C239.505 371.138 239.438 370.788 239.672 370.762C239.906 370.737 240.106 370.996 240.231 371.179C240.35 371.359 240.424 371.565 240.448 371.78C240.464 371.983 240.456 372.188 240.423 372.389Z" fill="#263238"/>
<path d="M225.363 370.453C225.363 370.453 225.772 370.453 226.398 370.553C227.204 370.711 227.953 371.083 228.567 371.629C229.175 372.194 229.617 372.915 229.843 373.714C230.018 374.323 230.01 374.732 230.043 374.732C230.061 374.638 230.061 374.542 230.043 374.448C230.039 374.189 230.005 373.932 229.943 373.681C229.748 372.843 229.303 372.084 228.667 371.505C228.031 370.925 227.234 370.553 226.381 370.436C226.126 370.409 225.869 370.409 225.614 370.436C225.53 370.429 225.445 370.435 225.363 370.453Z" fill="#263238"/>
<path d="M227.194 364.732C227.03 365.678 226.927 366.634 226.886 367.593C226.78 368.548 226.733 369.509 226.744 370.47C227.005 368.568 227.156 366.652 227.194 364.732Z" fill="#263238"/>
<path d="M231.902 373.564C233.233 373.906 234.614 374.01 235.982 373.872C235.982 373.822 235.064 373.814 233.938 373.73C232.812 373.647 231.902 373.514 231.902 373.564Z" fill="#263238"/>
<path d="M229.18 373.381C229.18 373.381 229.246 373.581 229.322 373.79C229.397 373.998 229.447 374.198 229.488 374.198C229.53 374.198 229.58 373.981 229.488 373.731C229.397 373.481 229.213 373.348 229.18 373.381Z" fill="#263238"/>
<path d="M228.238 372.03C228.238 372.03 228.28 372.213 228.413 372.364C228.547 372.514 228.689 372.622 228.722 372.589C228.755 372.555 228.68 372.414 228.547 372.255C228.413 372.097 228.272 371.997 228.238 372.03Z" fill="#263238"/>
<path d="M226.797 371.346C226.797 371.396 226.997 371.404 227.197 371.487C227.398 371.571 227.531 371.696 227.573 371.663C227.615 371.629 227.506 371.437 227.256 371.329C227.006 371.221 226.789 371.296 226.797 371.346Z" fill="#263238"/>
<path d="M225.773 370.996C225.773 371.038 225.823 371.121 225.94 371.171C226.057 371.221 226.157 371.23 226.182 371.171C226.207 371.113 226.124 371.055 226.007 371.004C225.89 370.954 225.79 370.954 225.773 370.996Z" fill="#263238"/>
<path d="M133.36 349.612L138.841 344.525L129.373 334.217L121.281 341.573L121.832 342.248C124.284 345.234 134.511 357.26 136.847 358.653C139.425 360.188 133.36 349.612 133.36 349.612Z" fill="#FF725E"/>
<g opacity="0.5">
<path d="M124.791 345.234C125.527 344.285 125.881 343.095 125.784 341.898C125.703 340.72 125.182 339.615 124.324 338.804L121.438 341.447L124.791 345.234Z" fill="white"/>
</g>
<g opacity="0.4">
<path d="M136.171 354.949C136.171 354.949 138.107 358.827 137.247 358.911C136.388 358.994 125.569 347.235 121.281 341.597L121.532 341.397L134.044 355.249C134.044 355.249 135.596 354.34 136.171 354.949Z" fill="white"/>
</g>
<path d="M121.391 341.205C121.391 341.205 121.391 341.28 121.532 341.405L121.966 341.939L123.635 343.891C125.028 345.559 126.971 347.76 129.199 350.179C131.426 352.598 133.47 354.749 134.971 356.284L136.773 358.085L137.265 358.569C137.321 358.628 137.382 358.681 137.449 358.727C137.449 358.727 137.399 358.661 137.29 358.544L136.815 358.044L135.063 356.2C133.578 354.649 131.534 352.489 129.324 350.071C127.113 347.652 125.153 345.425 123.726 343.807L122.058 341.897C121.891 341.705 121.741 341.53 121.599 341.38L121.391 341.205Z" fill="#263238"/>
<path d="M133.844 355.366C134.234 355.172 134.642 355.015 135.062 354.899C135.494 354.85 135.931 354.85 136.363 354.899C135.951 354.688 135.477 354.635 135.028 354.749C134.573 354.808 134.153 355.027 133.844 355.366Z" fill="#263238"/>
<path d="M132.633 350.914C133.099 350.939 133.564 350.856 133.993 350.672C133.993 350.622 133.667 350.672 133.3 350.672C132.933 350.672 132.633 350.863 132.633 350.914Z" fill="#263238"/>
<path d="M132.277 349.67C132.454 349.766 132.652 349.815 132.853 349.812C133.178 349.812 133.445 349.812 133.445 349.812C133.445 349.812 133.195 349.696 132.87 349.67C132.544 349.645 132.286 349.62 132.277 349.67Z" fill="#263238"/>
<path d="M132.766 348.277C132.766 348.277 132.916 348.578 133.191 348.878C133.466 349.178 133.708 349.395 133.742 349.361C133.775 349.328 133.583 349.061 133.316 348.761C133.049 348.461 132.799 348.219 132.766 348.277Z" fill="#263238"/>
<path d="M133.285 347.444C133.331 347.731 133.462 347.998 133.661 348.211C133.818 348.453 134.044 348.642 134.311 348.753C134.311 348.711 134.078 348.461 133.794 348.102C133.51 347.744 133.335 347.444 133.285 347.444Z" fill="#263238"/>
<path d="M133.816 350.437C133.985 350.689 134.193 350.912 134.434 351.096C134.691 351.311 134.971 351.499 135.268 351.655C135.435 351.76 135.614 351.844 135.802 351.905C135.917 351.95 136.045 351.95 136.161 351.905C136.219 351.868 136.266 351.816 136.297 351.755C136.328 351.693 136.342 351.624 136.336 351.555C136.224 351.19 135.992 350.874 135.676 350.66C135.36 350.446 134.981 350.347 134.601 350.379C134.376 350.399 134.157 350.464 133.958 350.571C133.816 350.646 133.758 350.704 133.766 350.712C134.031 350.595 134.312 350.522 134.601 350.496C134.912 350.487 135.219 350.568 135.485 350.729C135.647 350.816 135.789 350.935 135.904 351.078C136.019 351.221 136.103 351.386 136.152 351.563C136.152 351.738 136.01 351.813 135.835 351.755C135.66 351.699 135.492 351.624 135.335 351.53C135.046 351.376 134.767 351.203 134.5 351.013C134.075 350.671 133.841 350.412 133.816 350.437Z" fill="#263238"/>
<path d="M133.947 350.638C134.162 350.59 134.352 350.466 134.481 350.288C134.634 350.11 134.743 349.898 134.798 349.67C134.841 349.528 134.848 349.378 134.819 349.232C134.79 349.087 134.726 348.951 134.631 348.836C134.556 348.783 134.462 348.761 134.37 348.775C134.278 348.789 134.196 348.838 134.139 348.911C134.048 349.023 133.982 349.155 133.947 349.295C133.881 349.517 133.842 349.747 133.83 349.979C133.804 350.19 133.83 350.405 133.906 350.604C133.916 350.399 133.916 350.193 133.906 349.987C133.934 349.769 133.982 349.555 134.047 349.345C134.106 349.128 134.306 348.836 134.481 348.97C134.656 349.103 134.64 349.445 134.606 349.67C134.563 349.879 134.475 350.075 134.348 350.246C134.226 350.388 134.092 350.519 133.947 350.638Z" fill="#263238"/>
<path d="M124.41 338.829C124.41 338.829 124.702 339.104 125.078 339.621C125.562 340.291 125.851 341.082 125.912 341.907C125.959 342.734 125.78 343.558 125.394 344.292C125.094 344.859 124.811 345.126 124.836 345.126C124.861 345.126 124.919 345.067 125.044 344.934C125.216 344.742 125.367 344.532 125.495 344.308C125.933 343.569 126.137 342.714 126.079 341.856C126.021 340.998 125.704 340.178 125.169 339.505C125.008 339.303 124.829 339.116 124.635 338.946C124.565 338.899 124.489 338.86 124.41 338.829Z" fill="#263238"/>
<path d="M129.682 335.967C128.912 336.539 128.176 337.158 127.48 337.818C126.747 338.436 126.05 339.096 125.395 339.795C126.163 339.22 126.898 338.602 127.597 337.943C128.33 337.326 129.026 336.666 129.682 335.967Z" fill="#263238"/>
<path d="M126.992 345.609C127.712 346.781 128.639 347.813 129.728 348.653C129.728 348.653 129.103 347.978 128.344 347.144C127.584 346.31 127.034 345.584 126.992 345.609Z" fill="#263238"/>
<path d="M125.126 343.582C125.076 343.582 125.034 343.774 124.942 343.982C124.851 344.191 124.751 344.358 124.784 344.391C124.817 344.424 124.992 344.291 125.101 344.049C125.209 343.807 125.184 343.582 125.126 343.582Z" fill="#263238"/>
<path d="M125.392 341.956C125.342 341.956 125.3 342.114 125.292 342.323C125.283 342.531 125.292 342.698 125.35 342.698C125.409 342.698 125.45 342.54 125.459 342.331C125.467 342.123 125.442 341.956 125.392 341.956Z" fill="#263238"/>
<path d="M124.828 340.464C124.828 340.505 124.928 340.647 125.012 340.847C125.095 341.047 125.12 341.231 125.17 341.231C125.22 341.231 125.279 341.022 125.17 340.772C125.062 340.522 124.853 340.43 124.828 340.464Z" fill="#263238"/>
<path d="M124.293 339.503C124.251 339.503 124.251 339.628 124.293 339.745C124.335 339.862 124.41 339.937 124.451 339.92C124.493 339.904 124.493 339.795 124.451 339.678C124.41 339.562 124.368 339.487 124.293 339.503Z" fill="#263238"/>
<path d="M282.831 140.119C281.597 139.669 278.986 146.299 278.719 144.548C278.452 142.796 282.89 136.817 281.555 136.4C279.887 135.858 277.242 142.847 276.976 143.414C276.709 143.981 275.866 143.63 276.141 143.122C276.525 142.396 280.371 134.648 278.702 134.098C277.776 133.798 277.376 135.507 277.376 135.507C277.376 135.507 274.323 143.013 273.547 142.73C272.771 142.446 274.381 137.968 275.065 136.5C275.749 135.032 275.29 134.148 274.406 134.398C273.806 134.565 271.67 139.01 271.07 140.478C270.469 141.946 268.817 145.999 268 143.347C267.182 140.695 265.539 138.968 264.771 138.802C264.581 138.749 264.378 138.766 264.199 138.849C264.019 138.931 263.875 139.075 263.792 139.255C263.709 139.434 263.692 139.637 263.745 139.827C263.797 140.018 263.916 140.183 264.079 140.294C264.638 141.061 265.084 141.904 265.405 142.796C265.694 143.491 265.86 144.23 265.898 144.982C266.001 146.492 265.956 148.009 265.764 149.51L250.132 176.799L225.74 167.241L222.203 181.194C222.203 181.194 254.211 195.764 256.238 194.696C260.809 192.286 275.582 152.496 275.582 152.496C277.737 149.809 279.742 147.005 281.589 144.098C283.624 140.478 283.29 140.286 282.831 140.119Z" fill="#B78876"/>
<path d="M245.247 369.252C245.247 369.369 240.367 369.252 234.403 368.902C228.439 368.552 223.559 368.235 223.559 368.118C223.559 368.001 228.43 368.118 234.403 368.468C240.376 368.819 245.247 369.127 245.247 369.252Z" fill="#455A64"/>
<path d="M222.173 229.015C222.173 229.015 243.537 275.202 249.243 287.729C249.835 289.035 250.101 290.466 250.018 291.899L245.247 369.227L223.016 367.818L226.353 293.225L189.223 245.503C186.062 241.433 183.159 236.705 182.058 231.667C181.691 229.999 182.058 228.331 182.058 226.663L222.173 229.015Z" fill="#263238"/>
<path d="M219.981 235.687C219.981 235.687 202.597 283.508 197.817 296.419C197.316 297.773 196.487 298.982 195.406 299.938L137.497 351.438L122.707 334.758L177.63 284.151L184.904 224.103C185.473 218.977 187.183 214.044 189.909 209.666C190.798 208.234 191.847 206.907 193.037 205.713L219.981 235.687Z" fill="#263238"/>
<path d="M226.295 293.233C226.247 293.189 226.202 293.142 226.161 293.091L225.786 292.641L224.393 290.889C223.158 289.33 221.415 287.136 219.279 284.426L211.713 274.827L202.27 263.209C195.597 254.961 189.699 247.313 186.137 241.308C184.672 238.971 183.469 236.479 182.55 233.877C182.32 233.161 182.144 232.427 182.025 231.684L181.967 231.108C181.959 231.042 181.959 230.975 181.967 230.908C181.993 230.969 182.01 231.034 182.017 231.1C182.017 231.258 182.083 231.442 182.125 231.675C182.278 232.402 182.476 233.117 182.717 233.819C183.693 236.379 184.929 238.833 186.404 241.141C190.025 247.088 195.931 254.686 202.613 262.934C205.949 267.062 209.161 270.974 212.022 274.61C214.883 278.246 217.378 281.515 219.53 284.268L224.535 290.823L225.878 292.616L226.22 293.083C226.275 293.183 226.3 293.233 226.295 293.233Z" fill="#455A64"/>
<path d="M235.857 293.234C234.301 293.423 232.732 293.467 231.169 293.367C229.6 293.412 228.031 293.315 226.48 293.075C228.038 292.886 229.61 292.838 231.177 292.933C232.743 292.884 234.31 292.984 235.857 293.234Z" fill="#455A64"/>
<path d="M234.185 297.103C231.62 296.234 229.156 295.09 226.836 293.692C228.14 294.061 229.401 294.567 230.598 295.202C231.857 295.709 233.059 296.346 234.185 297.103Z" fill="#455A64"/>
<path d="M245.458 365.933C245.458 366.058 240.411 365.783 234.205 365.324C227.998 364.866 222.968 364.407 222.977 364.29C222.985 364.173 228.023 364.44 234.238 364.899C240.453 365.358 245.466 365.791 245.458 365.933Z" fill="#455A64"/>
<path d="M181.693 290.941C180.93 289.974 180.283 288.922 179.766 287.805C179.121 286.758 178.603 285.638 178.223 284.469C178.985 285.436 179.631 286.488 180.15 287.605C180.794 288.652 181.312 289.771 181.693 290.941Z" fill="#455A64"/>
<path d="M185.598 289.347C184.313 288.683 183.1 287.889 181.977 286.979C180.774 286.19 179.656 285.279 178.641 284.26C179.921 284.931 181.133 285.724 182.261 286.628C183.464 287.417 184.582 288.328 185.598 289.347Z" fill="#455A64"/>
<path d="M240.528 172.219C233.763 168.741 228.975 166.673 225.279 164.296C213.793 156.924 210.765 158.558 208.062 158.225C205.793 158.917 202.431 160.243 201.163 160.476C199.77 160.735 195.232 159.142 192.229 158.208C185.239 158.508 180.951 161.477 174.494 166.231L163.934 175.113L177.281 188.557L181.752 186.239C182.502 192.302 182.319 194.662 182.586 201.968L181.985 231.341L225.454 233.802L223.077 205.663L222.026 183.537L234.405 189.733L240.52 172.219" fill="#455A64"/>
<path d="M191.91 159.034V154.523C191.91 154.523 199.668 155.357 201.245 160.736L191.91 159.034Z" fill="#455A64"/>
<path d="M208.057 158.225L207.765 154.522C206.159 154.731 204.661 155.446 203.488 156.563C202.315 157.68 201.528 159.142 201.242 160.736L208.057 158.225Z" fill="#455A64"/>
<path d="M208.985 174.897C209.482 174.824 209.984 174.793 210.487 174.805C211.479 174.805 212.931 174.73 214.658 174.705H214.841V174.897C214.841 176.565 214.841 178.583 214.841 180.735V180.852L214.741 180.91L214.324 181.202L212.088 182.736L211.972 182.812L211.855 182.736C210.77 182.036 209.744 181.377 208.818 180.768L208.727 180.718V180.618C208.727 178.867 208.793 177.416 208.827 176.448C208.815 175.946 208.846 175.444 208.918 174.947C208.918 174.947 208.968 175.564 209.002 176.565C209.035 177.566 209.077 178.958 209.102 180.635L209.01 180.476L212.08 182.403H211.88L214.115 180.86L214.532 180.576L214.441 180.752C214.441 178.633 214.441 176.657 214.441 174.914L214.624 175.097C212.956 175.097 211.538 175.03 210.537 174.997C209.536 174.964 209.01 174.922 208.985 174.897Z" fill="#263238"/>
<path d="M214.548 176.315C213.614 176.515 212.655 176.574 211.703 176.491C210.75 176.549 209.794 176.462 208.867 176.232C209.801 176.031 210.76 175.972 211.712 176.057C212.665 175.993 213.622 176.08 214.548 176.315Z" fill="#263238"/>
<path d="M199.862 158.033C199.963 158.108 198.486 159.818 197.243 162.403L197.126 162.645L196.918 162.478L196.401 162.07C194.838 160.925 193.365 159.662 191.996 158.292C193.637 159.318 195.199 160.467 196.668 161.728L197.185 162.145L196.859 162.212C197.4 161.11 198.057 160.07 198.82 159.109C199.101 158.692 199.454 158.328 199.862 158.033Z" fill="#263238"/>
<path d="M208.013 158.392C207.207 159.503 206.288 160.526 205.269 161.445L205.169 161.537L204.985 161.72L204.835 161.511C204.026 160.462 203.33 159.33 202.758 158.134C203.678 159.087 204.495 160.135 205.194 161.261H204.86L204.96 161.161C205.873 160.129 206.897 159.2 208.013 158.392Z" fill="#263238"/>
<path d="M201.936 184.572C201.819 184.572 201.586 179.343 201.41 172.896C201.235 166.449 201.202 161.22 201.319 161.22C201.435 161.22 201.677 166.449 201.844 172.896C202.011 179.343 202.061 184.563 201.936 184.572Z" fill="#263238"/>
<path d="M186.179 160.461C186.306 160.441 186.435 160.441 186.562 160.461C186.928 160.447 187.295 160.472 187.655 160.536C188.991 160.763 190.242 161.338 191.284 162.204C192.872 163.492 193.961 165.295 194.362 167.3C194.842 169.732 194.55 172.254 193.528 174.514C192.491 176.748 190.993 178.738 189.132 180.352C187.635 181.655 186.011 182.807 184.285 183.788C182.817 184.622 181.599 185.256 180.757 185.673C180.328 185.907 179.882 186.108 179.422 186.273C179.819 185.991 180.237 185.74 180.673 185.522C181.507 185.055 182.692 184.405 184.127 183.529C185.81 182.518 187.396 181.354 188.865 180.051C190.665 178.473 192.119 176.539 193.136 174.372C194.116 172.192 194.407 169.766 193.97 167.416C193.608 165.499 192.605 163.761 191.125 162.487C190.134 161.625 188.945 161.021 187.664 160.728C186.704 160.477 186.179 160.511 186.179 160.461Z" fill="#263238"/>
<path d="M221.823 184.897C221.595 184.395 221.445 183.861 221.381 183.313C221.128 182.009 220.953 180.692 220.856 179.368C220.754 178.044 220.731 176.716 220.789 175.39C220.775 174.827 220.842 174.265 220.989 173.722C221.123 173.722 221.056 176.224 221.289 179.301C221.523 182.379 221.948 184.872 221.823 184.897Z" fill="#263238"/>
<path d="M209.629 185.131L126.688 198.8L135.193 250.387L218.134 236.719L209.629 185.131Z" fill="#FF725E"/>
<g opacity="0.6">
<path d="M209.629 185.131L126.688 198.8L135.193 250.387L218.134 236.719L209.629 185.131Z" fill="black"/>
</g>
<path d="M212.894 186.205L129.953 199.873L138.458 251.46L221.4 237.792L212.894 186.205Z" fill="#FF725E"/>
<g opacity="0.4">
<path d="M212.894 186.205L129.953 199.873L138.458 251.46L221.4 237.792L212.894 186.205Z" fill="black"/>
</g>
<path d="M215.824 187.768L132.883 201.437L141.388 253.024L224.329 239.355L215.824 187.768Z" fill="#FF725E"/>
<path d="M132.867 201.444C132.957 201.463 133.044 201.494 133.126 201.535L133.843 201.852L136.613 203.12L146.765 207.84L180.182 223.561L182.176 224.504L181.917 224.554L205.883 198.425L213.124 190.602L215.101 188.492L215.626 187.95C215.685 187.885 215.749 187.827 215.818 187.774C215.771 187.848 215.718 187.918 215.66 187.983L215.168 188.55L213.249 190.71L206.1 198.633L182.234 224.846L182.126 224.971L181.975 224.896L179.982 223.953L146.615 208.107L136.529 203.262L133.793 201.927L133.084 201.569L132.867 201.444Z" fill="#263238"/>
<path d="M167.403 217.765C167.503 217.84 161.756 225.788 154.565 235.521C147.375 245.254 141.469 253.093 141.368 253.035C141.268 252.977 147.024 245.012 154.215 235.279C161.406 225.546 167.312 217.699 167.403 217.765Z" fill="#263238"/>
<path d="M225.82 239.116C225.745 239.207 218.354 233.361 209.312 226.055C200.269 218.749 193.004 212.711 193.079 212.653C193.154 212.594 200.545 218.407 209.587 225.713C218.63 233.019 225.895 239.024 225.82 239.116Z" fill="#263238"/>
<path opacity="0.3" d="M182.503 228.716L139.234 204.446L182.078 224.704L214.945 188.726L182.503 228.716Z" fill="black"/>
<path d="M164.084 241.526C163.231 241.137 162.437 240.632 161.723 240.025C161.127 239.56 160.616 238.996 160.213 238.357C159.6 237.408 159.043 236.425 158.545 235.413C158.545 235.413 159.104 208.341 160.096 203.871C161.089 199.401 176.68 188.258 176.68 188.258L166.177 177.475C158.932 182.794 152.594 189.249 147.408 196.59C142.403 203.921 147.85 237.998 147.85 238.023C147.389 240.937 147.088 243.875 146.95 246.822C146.95 250.992 147.292 250.992 147.784 250.883C149.077 250.667 148.101 243.611 149.193 245.045C150.286 246.48 149.377 253.811 150.72 253.536C152.472 253.169 151.321 245.804 151.271 245.196C151.221 244.587 152.105 244.47 152.105 245.045C152.105 245.879 152.58 254.495 154.299 254.161C155.258 253.969 154.757 252.285 154.757 252.285C154.757 252.285 153.74 244.245 154.557 244.111C155.375 243.978 156.151 248.673 156.292 250.283C156.434 251.893 157.243 252.443 157.894 251.792C158.336 251.359 158.019 246.43 157.836 244.854C157.652 243.277 157.093 238.932 159.112 240.842C161.131 242.752 163.4 243.461 164.117 243.219C164.228 243.217 164.338 243.193 164.44 243.148C164.542 243.104 164.634 243.039 164.711 242.959C164.788 242.879 164.848 242.785 164.889 242.681C164.929 242.577 164.949 242.467 164.947 242.356C164.945 242.245 164.921 242.135 164.876 242.033C164.832 241.931 164.767 241.839 164.687 241.762C164.607 241.685 164.512 241.625 164.409 241.584C164.305 241.543 164.195 241.524 164.084 241.526Z" fill="#B78876"/>
</svg>
