<svg width="220" height="271" viewBox="0 0 220 271" fill="none" xmlns="http://www.w3.org/2000/svg">
<rect y="0.250488" width="220" height="270" fill="white"/>
<rect x="23" y="24.2505" width="173" height="40" rx="20" fill="#D9D9D9"/>
<path d="M38.328 49.2505V37.9385H40.024V49.2505H38.328ZM42.3674 49.2505V40.8185H43.9354L44.0154 42.0025C44.2287 41.6932 44.4847 41.4478 44.7834 41.2665C45.082 41.0745 45.402 40.9358 45.7434 40.8505C46.0847 40.7545 46.4154 40.7065 46.7354 40.7065C47.546 40.7065 48.1807 40.8825 48.6394 41.2345C49.1087 41.5758 49.4394 42.0398 49.6314 42.6265C49.834 43.2025 49.9354 43.8585 49.9354 44.5945V49.2505H48.2714V44.9305C48.2714 44.5892 48.25 44.2532 48.2074 43.9225C48.1647 43.5918 48.074 43.2985 47.9354 43.0425C47.8074 42.7758 47.6207 42.5678 47.3754 42.4185C47.13 42.2585 46.7994 42.1785 46.3834 42.1785C45.8714 42.1785 45.4394 42.3172 45.0874 42.5945C44.7354 42.8718 44.4687 43.2452 44.2874 43.7145C44.106 44.1838 44.0154 44.7118 44.0154 45.2985V49.2505H42.3674ZM56.1546 49.3465C55.8026 49.3465 55.4666 49.3092 55.1466 49.2345C54.8373 49.1598 54.544 49.0425 54.2666 48.8825C54 48.7118 53.76 48.5038 53.5466 48.2585L53.4986 49.2505H51.8986V37.9385H53.5466V41.9545C53.8453 41.5492 54.2453 41.2398 54.7466 41.0265C55.248 40.8132 55.7653 40.7065 56.2986 40.7065C57.1413 40.7065 57.8346 40.8985 58.3786 41.2825C58.9226 41.6558 59.3226 42.1678 59.5786 42.8185C59.8453 43.4585 59.9786 44.1892 59.9786 45.0105C59.9786 45.8212 59.84 46.5572 59.5626 47.2185C59.2853 47.8692 58.864 48.3865 58.2986 48.7705C57.744 49.1545 57.0293 49.3465 56.1546 49.3465ZM55.9786 47.8905C56.5653 47.8905 57.0293 47.7572 57.3706 47.4905C57.712 47.2238 57.9573 46.8718 58.1066 46.4345C58.256 45.9972 58.3306 45.5278 58.3306 45.0265C58.3306 44.5038 58.2506 44.0292 58.0906 43.6025C57.9413 43.1758 57.6906 42.8345 57.3386 42.5785C56.9973 42.3225 56.5386 42.1945 55.9626 42.1945C55.44 42.1945 54.9973 42.3385 54.6346 42.6265C54.272 42.9038 53.9946 43.2612 53.8026 43.6985C53.6213 44.1358 53.5306 44.5892 53.5306 45.0585C53.5306 45.5492 53.6106 46.0132 53.7706 46.4505C53.9413 46.8772 54.208 47.2238 54.5706 47.4905C54.9333 47.7572 55.4026 47.8905 55.9786 47.8905ZM65.4399 49.3465C64.5652 49.3465 63.8239 49.1705 63.2159 48.8185C62.6079 48.4558 62.1439 47.9492 61.8239 47.2985C61.5145 46.6478 61.3599 45.8958 61.3599 45.0425C61.3599 44.1785 61.5199 43.4265 61.8399 42.7865C62.1599 42.1358 62.6239 41.6292 63.2319 41.2665C63.8399 40.8932 64.5812 40.7065 65.4559 40.7065C66.3305 40.7065 67.0719 40.8932 67.6799 41.2665C68.2879 41.6292 68.7465 42.1358 69.0559 42.7865C69.3652 43.4372 69.5199 44.1945 69.5199 45.0585C69.5199 45.9012 69.3599 46.6478 69.0399 47.2985C68.7305 47.9492 68.2719 48.4558 67.6639 48.8185C67.0665 49.1705 66.3252 49.3465 65.4399 49.3465ZM65.4399 47.8745C66.0159 47.8745 66.4799 47.7465 66.8319 47.4905C67.1945 47.2345 67.4612 46.8932 67.6319 46.4665C67.8025 46.0292 67.8879 45.5545 67.8879 45.0425C67.8879 44.5305 67.8025 44.0612 67.6319 43.6345C67.4612 43.2078 67.1945 42.8665 66.8319 42.6105C66.4799 42.3438 66.0159 42.2105 65.4399 42.2105C64.8745 42.2105 64.4105 42.3438 64.0479 42.6105C63.6852 42.8665 63.4185 43.2078 63.2479 43.6345C63.0879 44.0612 63.0079 44.5305 63.0079 45.0425C63.0079 45.5652 63.0879 46.0398 63.2479 46.4665C63.4185 46.8932 63.6852 47.2345 64.0479 47.4905C64.4105 47.7465 64.8745 47.8745 65.4399 47.8745ZM70.2229 49.2505L73.2149 44.9465L70.3669 40.8185H72.3349L74.3189 43.8425L76.2389 40.8185H78.1429L75.3109 44.9945L78.3509 49.2505H76.3989L74.2229 46.1785L72.0789 49.2505H70.2229Z" fill="black"/>
<rect x="23" y="80.2505" width="173" height="40" rx="20" fill="black"/>
<path d="M44.472 105.378C43.736 105.378 43.0427 105.272 42.392 105.058C41.7413 104.845 41.192 104.498 40.744 104.018C40.296 103.538 39.9973 102.904 39.848 102.114H41.592C41.7307 102.562 41.9547 102.914 42.264 103.17C42.5733 103.416 42.9307 103.586 43.336 103.682C43.752 103.778 44.168 103.826 44.584 103.826C44.9787 103.826 45.3467 103.773 45.688 103.666C46.04 103.56 46.328 103.384 46.552 103.138C46.776 102.893 46.888 102.573 46.888 102.178C46.888 101.88 46.8293 101.634 46.712 101.442C46.5947 101.25 46.4293 101.096 46.216 100.978C46.0133 100.85 45.768 100.749 45.48 100.674C45.1493 100.568 44.792 100.477 44.408 100.402C44.0347 100.328 43.6613 100.242 43.288 100.146C42.9253 100.05 42.584 99.9278 42.264 99.7785C41.9973 99.6718 41.736 99.5438 41.48 99.3945C41.2347 99.2345 41.0213 99.0478 40.84 98.8345C40.6587 98.6105 40.5093 98.3492 40.392 98.0505C40.2853 97.7518 40.232 97.4105 40.232 97.0265C40.232 96.5145 40.312 96.0772 40.472 95.7145C40.6427 95.3518 40.8613 95.0478 41.128 94.8025C41.4053 94.5572 41.72 94.3652 42.072 94.2265C42.4347 94.0772 42.8133 93.9705 43.208 93.9065C43.6027 93.8425 43.9867 93.8105 44.36 93.8105C45.0427 93.8105 45.672 93.9172 46.248 94.1305C46.824 94.3438 47.2987 94.6852 47.672 95.1545C48.056 95.6132 48.264 96.2212 48.296 96.9785H46.648C46.6053 96.5732 46.4667 96.2532 46.232 96.0185C46.008 95.7732 45.7253 95.6025 45.384 95.5065C45.0427 95.3998 44.68 95.3465 44.296 95.3465C44.0187 95.3465 43.7413 95.3732 43.464 95.4265C43.1867 95.4692 42.9307 95.5545 42.696 95.6825C42.472 95.7998 42.2907 95.9598 42.152 96.1625C42.024 96.3652 41.96 96.6158 41.96 96.9145C41.96 97.1705 42.0133 97.3998 42.12 97.6025C42.2267 97.7945 42.376 97.9598 42.568 98.0985C42.7707 98.2265 42.9947 98.3385 43.24 98.4345C43.688 98.6052 44.1787 98.7385 44.712 98.8345C45.2453 98.9198 45.7467 99.0425 46.216 99.2025C46.5573 99.3092 46.8773 99.4425 47.176 99.6025C47.4747 99.7518 47.7307 99.9385 47.944 100.162C48.1573 100.376 48.3227 100.632 48.44 100.93C48.5573 101.218 48.616 101.554 48.616 101.938C48.616 102.568 48.504 103.106 48.28 103.554C48.056 103.992 47.752 104.344 47.368 104.61C46.984 104.877 46.5413 105.074 46.04 105.202C45.5387 105.32 45.016 105.378 44.472 105.378ZM50.4924 108.322V96.8185H52.0604L52.1404 98.0185C52.439 97.5812 52.8284 97.2558 53.3084 97.0425C53.7884 96.8185 54.311 96.7065 54.8764 96.7065C55.719 96.7065 56.4124 96.8985 56.9564 97.2825C57.5004 97.6558 57.9057 98.1732 58.1724 98.8345C58.439 99.4852 58.5724 100.216 58.5724 101.026C58.5724 101.858 58.4337 102.6 58.1564 103.25C57.8897 103.901 57.4737 104.413 56.9084 104.786C56.3537 105.16 55.6497 105.346 54.7964 105.346C54.391 105.346 54.0177 105.304 53.6764 105.218C53.3457 105.133 53.0524 105.01 52.7964 104.85C52.551 104.68 52.3324 104.482 52.1404 104.258V108.322H50.4924ZM54.5884 103.874C55.1644 103.874 55.623 103.746 55.9644 103.49C56.3057 103.224 56.551 102.877 56.7004 102.45C56.8497 102.024 56.9244 101.56 56.9244 101.058C56.9244 100.536 56.8444 100.061 56.6844 99.6345C56.535 99.1972 56.2844 98.8505 55.9324 98.5945C55.591 98.3278 55.1324 98.1945 54.5564 98.1945C54.0337 98.1945 53.591 98.3278 53.2284 98.5945C52.8657 98.8505 52.5884 99.1972 52.3964 99.6345C52.215 100.072 52.1244 100.546 52.1244 101.058C52.1244 101.581 52.2097 102.061 52.3804 102.498C52.5617 102.925 52.8337 103.261 53.1964 103.506C53.5697 103.752 54.0337 103.874 54.5884 103.874ZM62.9616 105.346C62.5776 105.346 62.2043 105.298 61.8416 105.202C61.4896 105.096 61.175 104.941 60.8976 104.738C60.6203 104.525 60.3963 104.264 60.2256 103.954C60.0656 103.634 59.9856 103.261 59.9856 102.834C59.9856 102.322 60.0816 101.901 60.2736 101.57C60.4763 101.229 60.743 100.968 61.0736 100.786C61.4043 100.594 61.783 100.461 62.2096 100.386C62.647 100.301 63.1003 100.258 63.5696 100.258H65.6336C65.6336 99.8425 65.5696 99.4798 65.4416 99.1705C65.3136 98.8505 65.111 98.6052 64.8336 98.4345C64.567 98.2532 64.2096 98.1625 63.7616 98.1625C63.495 98.1625 63.239 98.1945 62.9936 98.2585C62.759 98.3118 62.5563 98.4025 62.3856 98.5305C62.215 98.6585 62.0976 98.8292 62.0336 99.0425H60.3056C60.3696 98.6372 60.5136 98.2905 60.7376 98.0025C60.9616 97.7038 61.239 97.4585 61.5696 97.2665C61.9003 97.0745 62.2523 96.9358 62.6256 96.8505C63.0096 96.7545 63.399 96.7065 63.7936 96.7065C65.0096 96.7065 65.8843 97.0638 66.4176 97.7785C66.9616 98.4825 67.2336 99.4532 67.2336 100.69V105.25H65.8096L65.7456 104.178C65.5003 104.509 65.207 104.76 64.8656 104.93C64.535 105.101 64.2043 105.213 63.8736 105.266C63.543 105.32 63.239 105.346 62.9616 105.346ZM63.2176 103.954C63.6976 103.954 64.119 103.874 64.4816 103.714C64.8443 103.544 65.127 103.304 65.3296 102.994C65.5323 102.674 65.6336 102.301 65.6336 101.874V101.522H64.1296C63.8203 101.522 63.5163 101.533 63.2176 101.554C62.9296 101.565 62.663 101.608 62.4176 101.682C62.183 101.746 61.991 101.858 61.8416 102.018C61.703 102.178 61.6336 102.408 61.6336 102.706C61.6336 102.994 61.7083 103.229 61.8576 103.41C62.007 103.592 62.2043 103.73 62.4496 103.826C62.695 103.912 62.951 103.954 63.2176 103.954ZM69.2111 105.25V96.8185H70.7631L70.8591 97.8105C71.0511 97.5332 71.2645 97.3198 71.4991 97.1705C71.7445 97.0105 72.0058 96.8932 72.2831 96.8185C72.5605 96.7438 72.8431 96.7065 73.1311 96.7065C73.6965 96.7065 74.1605 96.8238 74.5231 97.0585C74.8965 97.2932 75.1845 97.6132 75.3871 98.0185C75.5898 97.7305 75.8191 97.4905 76.0751 97.2985C76.3311 97.0958 76.6138 96.9465 76.9231 96.8505C77.2325 96.7545 77.5631 96.7065 77.9151 96.7065C78.5445 96.7065 79.0511 96.8452 79.4351 97.1225C79.8298 97.3892 80.1125 97.7518 80.2831 98.2105C80.4645 98.6692 80.5551 99.1972 80.5551 99.7945V105.25H78.8911V100.45C78.8911 100.194 78.8805 99.9385 78.8591 99.6825C78.8378 99.4265 78.7738 99.1865 78.6671 98.9625C78.5711 98.7278 78.4271 98.5412 78.2351 98.4025C78.0538 98.2532 77.7925 98.1785 77.4511 98.1785C77.1205 98.1785 76.8431 98.2532 76.6191 98.4025C76.4058 98.5518 76.2298 98.7545 76.0911 99.0105C75.9631 99.2558 75.8671 99.5225 75.8031 99.8105C75.7498 100.098 75.7231 100.386 75.7231 100.674V105.25H74.0591V100.434C74.0591 100.189 74.0485 99.9385 74.0271 99.6825C74.0058 99.4265 73.9525 99.1865 73.8671 98.9625C73.7818 98.7278 73.6378 98.5412 73.4351 98.4025C73.2431 98.2532 72.9818 98.1785 72.6511 98.1785C72.1711 98.1785 71.7978 98.3172 71.5311 98.5945C71.2751 98.8612 71.0991 99.1918 71.0031 99.5865C70.9071 99.9705 70.8591 100.338 70.8591 100.69V105.25H69.2111Z" fill="white"/>
<path d="M169.31 106.878C168.531 106.878 167.865 106.734 167.31 106.446C166.755 106.148 166.302 105.742 165.95 105.23C165.598 104.718 165.342 104.137 165.182 103.486C165.022 102.825 164.942 102.137 164.942 101.422C164.942 100.59 165.027 99.8065 165.198 99.0705C165.369 98.3345 165.635 97.6838 165.998 97.1185C166.371 96.5532 166.846 96.1105 167.422 95.7905C168.009 95.4705 168.707 95.3105 169.518 95.3105C170.094 95.3105 170.627 95.4118 171.118 95.6145C171.619 95.8065 172.046 96.0998 172.398 96.4945C172.75 96.8892 173.001 97.3852 173.15 97.9825H171.454C171.283 97.6092 171.017 97.3265 170.654 97.1345C170.291 96.9425 169.902 96.8465 169.486 96.8465C169.027 96.8465 168.633 96.9318 168.302 97.1025C167.982 97.2625 167.71 97.4865 167.486 97.7745C167.262 98.0518 167.081 98.3718 166.942 98.7345C166.803 99.0972 166.702 99.4758 166.638 99.8705C166.574 100.254 166.542 100.633 166.542 101.006C166.798 100.633 167.086 100.334 167.406 100.11C167.737 99.8865 168.089 99.7265 168.462 99.6305C168.835 99.5238 169.203 99.4705 169.566 99.4705C170.323 99.4705 170.974 99.6252 171.518 99.9345C172.062 100.233 172.483 100.654 172.782 101.198C173.091 101.732 173.246 102.356 173.246 103.07C173.246 103.828 173.075 104.494 172.734 105.07C172.403 105.646 171.939 106.094 171.342 106.414C170.755 106.724 170.078 106.878 169.31 106.878ZM169.294 105.342C169.742 105.342 170.131 105.246 170.462 105.054C170.803 104.862 171.065 104.606 171.246 104.286C171.438 103.956 171.534 103.593 171.534 103.198C171.534 102.782 171.443 102.409 171.262 102.078C171.081 101.748 170.825 101.486 170.494 101.294C170.174 101.092 169.795 100.99 169.358 100.99C168.942 100.99 168.553 101.086 168.19 101.278C167.838 101.46 167.555 101.716 167.342 102.046C167.129 102.366 167.022 102.745 167.022 103.182C167.022 103.577 167.118 103.94 167.31 104.27C167.502 104.59 167.769 104.852 168.11 105.054C168.462 105.246 168.857 105.342 169.294 105.342ZM176.655 106.75V97.9345H174.383V96.7345C174.81 96.7025 175.194 96.6545 175.535 96.5905C175.876 96.5158 176.18 96.3932 176.447 96.2225C176.714 96.0412 176.948 95.7798 177.151 95.4385H178.351V106.75H176.655Z" fill="white"/>
<rect x="23" y="136.25" width="173" height="40" rx="20" fill="#D9D9D9"/>
<path d="M42.472 161.378C41.736 161.378 41.0427 161.272 40.392 161.058C39.7413 160.845 39.192 160.498 38.744 160.018C38.296 159.538 37.9973 158.904 37.848 158.114H39.592C39.7307 158.562 39.9547 158.914 40.264 159.17C40.5733 159.416 40.9307 159.586 41.336 159.682C41.752 159.778 42.168 159.826 42.584 159.826C42.9787 159.826 43.3467 159.773 43.688 159.666C44.04 159.56 44.328 159.384 44.552 159.138C44.776 158.893 44.888 158.573 44.888 158.178C44.888 157.88 44.8293 157.634 44.712 157.442C44.5947 157.25 44.4293 157.096 44.216 156.978C44.0133 156.85 43.768 156.749 43.48 156.674C43.1493 156.568 42.792 156.477 42.408 156.402C42.0347 156.328 41.6613 156.242 41.288 156.146C40.9253 156.05 40.584 155.928 40.264 155.778C39.9973 155.672 39.736 155.544 39.48 155.394C39.2347 155.234 39.0213 155.048 38.84 154.834C38.6587 154.61 38.5093 154.349 38.392 154.05C38.2853 153.752 38.232 153.41 38.232 153.026C38.232 152.514 38.312 152.077 38.472 151.714C38.6427 151.352 38.8613 151.048 39.128 150.802C39.4053 150.557 39.72 150.365 40.072 150.226C40.4347 150.077 40.8133 149.97 41.208 149.906C41.6027 149.842 41.9867 149.81 42.36 149.81C43.0427 149.81 43.672 149.917 44.248 150.13C44.824 150.344 45.2987 150.685 45.672 151.154C46.056 151.613 46.264 152.221 46.296 152.978H44.648C44.6053 152.573 44.4667 152.253 44.232 152.018C44.008 151.773 43.7253 151.602 43.384 151.506C43.0427 151.4 42.68 151.346 42.296 151.346C42.0187 151.346 41.7413 151.373 41.464 151.426C41.1867 151.469 40.9307 151.554 40.696 151.682C40.472 151.8 40.2907 151.96 40.152 152.162C40.024 152.365 39.96 152.616 39.96 152.914C39.96 153.17 40.0133 153.4 40.12 153.602C40.2267 153.794 40.376 153.96 40.568 154.098C40.7707 154.226 40.9947 154.338 41.24 154.434C41.688 154.605 42.1787 154.738 42.712 154.834C43.2453 154.92 43.7467 155.042 44.216 155.202C44.5573 155.309 44.8773 155.442 45.176 155.602C45.4747 155.752 45.7307 155.938 45.944 156.162C46.1573 156.376 46.3227 156.632 46.44 156.93C46.5573 157.218 46.616 157.554 46.616 157.938C46.616 158.568 46.504 159.106 46.28 159.554C46.056 159.992 45.752 160.344 45.368 160.61C44.984 160.877 44.5413 161.074 44.04 161.202C43.5387 161.32 43.016 161.378 42.472 161.378ZM52.2044 161.346C51.319 161.346 50.5777 161.165 49.9804 160.802C49.383 160.44 48.9297 159.938 48.6204 159.298C48.3217 158.648 48.1724 157.901 48.1724 157.058C48.1724 156.205 48.327 155.453 48.6364 154.802C48.9564 154.152 49.415 153.64 50.0124 153.266C50.6204 152.893 51.351 152.706 52.2044 152.706C52.855 152.706 53.4204 152.829 53.9004 153.074C54.3804 153.309 54.775 153.629 55.0844 154.034C55.4044 154.44 55.639 154.893 55.7884 155.394C55.9377 155.885 56.0017 156.397 55.9804 156.93C55.9804 157.048 55.975 157.16 55.9644 157.266C55.9537 157.373 55.943 157.485 55.9324 157.602H49.8364C49.8684 158.029 49.975 158.418 50.1564 158.77C50.3484 159.122 50.615 159.405 50.9564 159.618C51.2977 159.821 51.719 159.922 52.2204 159.922C52.4977 159.922 52.7644 159.89 53.0204 159.826C53.287 159.752 53.5217 159.64 53.7244 159.49C53.9377 159.33 54.087 159.128 54.1724 158.882H55.8364C55.6977 159.448 55.447 159.917 55.0844 160.29C54.7324 160.653 54.3004 160.92 53.7884 161.09C53.287 161.261 52.759 161.346 52.2044 161.346ZM49.8684 156.29H54.3484C54.3377 155.874 54.2417 155.506 54.0604 155.186C53.879 154.856 53.6284 154.6 53.3084 154.418C52.9884 154.226 52.6044 154.13 52.1564 154.13C51.6657 154.13 51.255 154.232 50.9244 154.434C50.6044 154.637 50.3537 154.904 50.1724 155.234C50.0017 155.554 49.9004 155.906 49.8684 156.29ZM57.6799 161.25V152.818H59.2479L59.3279 154.002C59.5412 153.693 59.7972 153.448 60.0959 153.266C60.3945 153.074 60.7145 152.936 61.0559 152.85C61.3972 152.754 61.7279 152.706 62.0479 152.706C62.8585 152.706 63.4932 152.882 63.9519 153.234C64.4212 153.576 64.7519 154.04 64.9439 154.626C65.1465 155.202 65.2479 155.858 65.2479 156.594V161.25H63.5839V156.93C63.5839 156.589 63.5625 156.253 63.5199 155.922C63.4772 155.592 63.3865 155.298 63.2479 155.042C63.1199 154.776 62.9332 154.568 62.6879 154.418C62.4425 154.258 62.1119 154.178 61.6959 154.178C61.1839 154.178 60.7519 154.317 60.3999 154.594C60.0479 154.872 59.7812 155.245 59.5999 155.714C59.4185 156.184 59.3279 156.712 59.3279 157.298V161.25H57.6799ZM70.7631 161.25C70.1018 161.25 69.5631 161.16 69.1471 160.978C68.7311 160.786 68.4218 160.488 68.2191 160.082C68.0271 159.677 67.9311 159.149 67.9311 158.498V154.29H66.6031V152.818H67.9311V150.386H69.5791V152.818H71.7071V154.29H69.5791V158.29C69.5791 158.792 69.6698 159.17 69.8511 159.426C70.0325 159.672 70.4111 159.794 70.9871 159.794H71.6431V161.25H70.7631Z" fill="black"/>
<path d="M47.5311 215.25V203.938H55.2911V205.49H49.2271V209.282H54.4591V210.85H49.2271V215.25H47.5311ZM56.8205 215.25V206.818H58.4685V215.25H56.8205ZM57.6365 205.698C57.3165 205.698 57.0552 205.602 56.8525 205.41C56.6605 205.208 56.5645 204.952 56.5645 204.642C56.5645 204.333 56.6658 204.082 56.8685 203.89C57.0712 203.688 57.3272 203.586 57.6365 203.586C57.9245 203.586 58.1752 203.688 58.3885 203.89C58.6125 204.082 58.7245 204.333 58.7245 204.642C58.7245 204.952 58.6178 205.208 58.4045 205.41C58.2018 205.602 57.9458 205.698 57.6365 205.698ZM60.508 215.25V203.938H62.156V215.25H60.508ZM67.4595 215.346C66.5528 215.346 65.9022 215.101 65.5075 214.61C65.1235 214.109 64.9315 213.41 64.9315 212.514V208.29H63.5875V206.818H64.9315V204.37H66.5795V206.818H69.1555V208.29H66.5795V212.242C66.5795 212.541 66.6062 212.813 66.6595 213.058C66.7235 213.304 66.8408 213.496 67.0115 213.634C67.1822 213.773 67.4275 213.848 67.7475 213.858C67.9928 213.858 68.2062 213.816 68.3875 213.73C68.5795 213.645 68.7342 213.549 68.8515 213.442L69.4915 214.674C69.2888 214.834 69.0755 214.968 68.8515 215.074C68.6382 215.17 68.4142 215.24 68.1795 215.282C67.9448 215.325 67.7048 215.346 67.4595 215.346ZM74.3919 215.346C73.5065 215.346 72.7652 215.165 72.1679 214.802C71.5705 214.44 71.1172 213.938 70.8079 213.298C70.5092 212.648 70.3599 211.901 70.3599 211.058C70.3599 210.205 70.5145 209.453 70.8239 208.802C71.1439 208.152 71.6025 207.64 72.1999 207.266C72.8079 206.893 73.5385 206.706 74.3919 206.706C75.0425 206.706 75.6079 206.829 76.0879 207.074C76.5679 207.309 76.9625 207.629 77.2719 208.034C77.5919 208.44 77.8265 208.893 77.9759 209.394C78.1252 209.885 78.1892 210.397 78.1679 210.93C78.1679 211.048 78.1625 211.16 78.1519 211.266C78.1412 211.373 78.1305 211.485 78.1199 211.602H72.0239C72.0559 212.029 72.1625 212.418 72.3439 212.77C72.5359 213.122 72.8025 213.405 73.1439 213.618C73.4852 213.821 73.9065 213.922 74.4079 213.922C74.6852 213.922 74.9519 213.89 75.2079 213.826C75.4745 213.752 75.7092 213.64 75.9119 213.49C76.1252 213.33 76.2745 213.128 76.3599 212.882H78.0239C77.8852 213.448 77.6345 213.917 77.2719 214.29C76.9199 214.653 76.4879 214.92 75.9759 215.09C75.4745 215.261 74.9465 215.346 74.3919 215.346ZM72.0559 210.29H76.5359C76.5252 209.874 76.4292 209.506 76.2479 209.186C76.0665 208.856 75.8159 208.6 75.4959 208.418C75.1759 208.226 74.7919 208.13 74.3439 208.13C73.8532 208.13 73.4425 208.232 73.1119 208.434C72.7919 208.637 72.5412 208.904 72.3599 209.234C72.1892 209.554 72.0879 209.906 72.0559 210.29ZM79.8674 215.25V206.818H81.4194L81.4994 208.034C81.7127 207.704 81.958 207.442 82.2354 207.25C82.5127 207.058 82.8167 206.92 83.1474 206.834C83.478 206.749 83.8247 206.706 84.1874 206.706C84.2834 206.706 84.374 206.706 84.4594 206.706C84.5447 206.706 84.6247 206.706 84.6994 206.706V208.29H84.1874C83.5794 208.29 83.0727 208.413 82.6674 208.658C82.2727 208.904 81.9794 209.245 81.7874 209.682C81.606 210.12 81.5154 210.621 81.5154 211.186V215.25H79.8674ZM89.5013 215.346C88.6159 215.346 87.8746 215.165 87.2773 214.802C86.6799 214.44 86.2266 213.938 85.9173 213.298C85.6186 212.648 85.4693 211.901 85.4693 211.058C85.4693 210.205 85.6239 209.453 85.9333 208.802C86.2533 208.152 86.7119 207.64 87.3093 207.266C87.9173 206.893 88.6479 206.706 89.5013 206.706C90.1519 206.706 90.7173 206.829 91.1973 207.074C91.6773 207.309 92.0719 207.629 92.3813 208.034C92.7013 208.44 92.9359 208.893 93.0853 209.394C93.2346 209.885 93.2986 210.397 93.2773 210.93C93.2773 211.048 93.2719 211.16 93.2613 211.266C93.2506 211.373 93.2399 211.485 93.2292 211.602H87.1332C87.1653 212.029 87.2719 212.418 87.4533 212.77C87.6453 213.122 87.9119 213.405 88.2533 213.618C88.5946 213.821 89.0159 213.922 89.5173 213.922C89.7946 213.922 90.0613 213.89 90.3173 213.826C90.5839 213.752 90.8186 213.64 91.0213 213.49C91.2346 213.33 91.3839 213.128 91.4693 212.882H93.1333C92.9946 213.448 92.7439 213.917 92.3813 214.29C92.0293 214.653 91.5973 214.92 91.0853 215.09C90.5839 215.261 90.0559 215.346 89.5013 215.346ZM87.1653 210.29H91.6453C91.6346 209.874 91.5386 209.506 91.3573 209.186C91.1759 208.856 90.9253 208.6 90.6053 208.418C90.2853 208.226 89.9013 208.13 89.4533 208.13C88.9626 208.13 88.5519 208.232 88.2213 208.434C87.9013 208.637 87.6506 208.904 87.4693 209.234C87.2986 209.554 87.1973 209.906 87.1653 210.29ZM98.3848 215.346C97.5421 215.346 96.8434 215.16 96.2888 214.786C95.7448 214.402 95.3341 213.885 95.0568 213.234C94.7901 212.584 94.6568 211.853 94.6568 211.042C94.6568 210.221 94.7954 209.485 95.0728 208.834C95.3501 208.173 95.7714 207.656 96.3368 207.282C96.9021 206.898 97.6168 206.706 98.4808 206.706C98.8008 206.706 99.1208 206.744 99.4408 206.818C99.7714 206.893 100.075 207.01 100.353 207.17C100.641 207.32 100.886 207.522 101.089 207.778V203.938H102.737V215.25H101.153L101.089 214.098C100.897 214.386 100.657 214.626 100.369 214.818C100.091 215 99.7821 215.133 99.4408 215.218C99.0994 215.304 98.7474 215.346 98.3848 215.346ZM98.6568 213.874C99.2008 213.874 99.6488 213.741 100.001 213.474C100.363 213.208 100.635 212.856 100.817 212.418C100.998 211.981 101.089 211.506 101.089 210.994C101.089 210.472 100.998 210.002 100.817 209.586C100.646 209.16 100.379 208.824 100.017 208.578C99.6648 208.322 99.2114 208.194 98.6568 208.194C98.0808 208.194 97.6221 208.328 97.2808 208.594C96.9394 208.85 96.6888 209.197 96.5288 209.634C96.3794 210.072 96.3048 210.552 96.3048 211.074C96.3048 211.458 96.3474 211.821 96.4328 212.162C96.5181 212.493 96.6514 212.792 96.8328 213.058C97.0248 213.314 97.2701 213.517 97.5688 213.666C97.8674 213.805 98.2301 213.874 98.6568 213.874ZM109.149 215.25V206.818H110.797V215.25H109.149ZM109.965 205.698C109.645 205.698 109.383 205.602 109.181 205.41C108.989 205.208 108.893 204.952 108.893 204.642C108.893 204.333 108.994 204.082 109.197 203.89C109.399 203.688 109.655 203.586 109.965 203.586C110.253 203.586 110.503 203.688 110.717 203.89C110.941 204.082 111.053 204.333 111.053 204.642C111.053 204.952 110.946 205.208 110.733 205.41C110.53 205.602 110.274 205.698 109.965 205.698ZM112.836 215.25V206.818H114.404L114.484 208.002C114.697 207.693 114.953 207.448 115.252 207.266C115.551 207.074 115.871 206.936 116.212 206.85C116.553 206.754 116.884 206.706 117.204 206.706C118.015 206.706 118.649 206.882 119.108 207.234C119.577 207.576 119.908 208.04 120.1 208.626C120.303 209.202 120.404 209.858 120.404 210.594V215.25H118.74V210.93C118.74 210.589 118.719 210.253 118.676 209.922C118.633 209.592 118.543 209.298 118.404 209.042C118.276 208.776 118.089 208.568 117.844 208.418C117.599 208.258 117.268 208.178 116.852 208.178C116.34 208.178 115.908 208.317 115.556 208.594C115.204 208.872 114.937 209.245 114.756 209.714C114.575 210.184 114.484 210.712 114.484 211.298V215.25H112.836ZM126.623 215.346C126.271 215.346 125.935 215.309 125.615 215.234C125.306 215.16 125.013 215.042 124.735 214.882C124.469 214.712 124.229 214.504 124.015 214.258L123.967 215.25H122.367V203.938H124.015V207.954C124.314 207.549 124.714 207.24 125.215 207.026C125.717 206.813 126.234 206.706 126.767 206.706C127.61 206.706 128.303 206.898 128.847 207.282C129.391 207.656 129.791 208.168 130.047 208.818C130.314 209.458 130.447 210.189 130.447 211.01C130.447 211.821 130.309 212.557 130.031 213.218C129.754 213.869 129.333 214.386 128.767 214.77C128.213 215.154 127.498 215.346 126.623 215.346ZM126.447 213.89C127.034 213.89 127.498 213.757 127.839 213.49C128.181 213.224 128.426 212.872 128.575 212.434C128.725 211.997 128.799 211.528 128.799 211.026C128.799 210.504 128.719 210.029 128.559 209.602C128.41 209.176 128.159 208.834 127.807 208.578C127.466 208.322 127.007 208.194 126.431 208.194C125.909 208.194 125.466 208.338 125.103 208.626C124.741 208.904 124.463 209.261 124.271 209.698C124.09 210.136 123.999 210.589 123.999 211.058C123.999 211.549 124.079 212.013 124.239 212.45C124.41 212.877 124.677 213.224 125.039 213.49C125.402 213.757 125.871 213.89 126.447 213.89ZM135.909 215.346C135.034 215.346 134.293 215.17 133.685 214.818C133.077 214.456 132.613 213.949 132.293 213.298C131.983 212.648 131.829 211.896 131.829 211.042C131.829 210.178 131.989 209.426 132.309 208.786C132.629 208.136 133.093 207.629 133.701 207.266C134.309 206.893 135.05 206.706 135.925 206.706C136.799 206.706 137.541 206.893 138.149 207.266C138.757 207.629 139.215 208.136 139.525 208.786C139.834 209.437 139.989 210.194 139.989 211.058C139.989 211.901 139.829 212.648 139.509 213.298C139.199 213.949 138.741 214.456 138.133 214.818C137.535 215.17 136.794 215.346 135.909 215.346ZM135.909 213.874C136.485 213.874 136.949 213.746 137.301 213.49C137.663 213.234 137.93 212.893 138.101 212.466C138.271 212.029 138.357 211.554 138.357 211.042C138.357 210.53 138.271 210.061 138.101 209.634C137.93 209.208 137.663 208.866 137.301 208.61C136.949 208.344 136.485 208.21 135.909 208.21C135.343 208.21 134.879 208.344 134.517 208.61C134.154 208.866 133.887 209.208 133.717 209.634C133.557 210.061 133.477 210.53 133.477 211.042C133.477 211.565 133.557 212.04 133.717 212.466C133.887 212.893 134.154 213.234 134.517 213.49C134.879 213.746 135.343 213.874 135.909 213.874ZM140.692 215.25L143.684 210.946L140.836 206.818H142.804L144.788 209.842L146.708 206.818H148.612L145.78 210.994L148.82 215.25H146.868L144.692 212.178L142.548 215.25H140.692ZM155.183 215.25V208.29H153.839V206.818H155.183V205.97C155.183 205.33 155.273 204.813 155.455 204.418C155.647 204.013 155.94 203.714 156.335 203.522C156.74 203.33 157.268 203.234 157.919 203.234H159.023V204.69H158.111C157.78 204.69 157.519 204.749 157.327 204.866C157.145 204.973 157.017 205.138 156.943 205.362C156.868 205.576 156.831 205.837 156.831 206.146V206.818H159.023V208.29H156.831V215.25H155.183ZM163.956 215.346C163.081 215.346 162.34 215.17 161.732 214.818C161.124 214.456 160.66 213.949 160.34 213.298C160.03 212.648 159.876 211.896 159.876 211.042C159.876 210.178 160.036 209.426 160.356 208.786C160.676 208.136 161.14 207.629 161.748 207.266C162.356 206.893 163.097 206.706 163.972 206.706C164.846 206.706 165.588 206.893 166.196 207.266C166.804 207.629 167.262 208.136 167.572 208.786C167.881 209.437 168.036 210.194 168.036 211.058C168.036 211.901 167.876 212.648 167.556 213.298C167.246 213.949 166.788 214.456 166.18 214.818C165.582 215.17 164.841 215.346 163.956 215.346ZM163.956 213.874C164.532 213.874 164.996 213.746 165.348 213.49C165.71 213.234 165.977 212.893 166.148 212.466C166.318 212.029 166.404 211.554 166.404 211.042C166.404 210.53 166.318 210.061 166.148 209.634C165.977 209.208 165.71 208.866 165.348 208.61C164.996 208.344 164.532 208.21 163.956 208.21C163.39 208.21 162.926 208.344 162.564 208.61C162.201 208.866 161.934 209.208 161.764 209.634C161.604 210.061 161.524 210.53 161.524 211.042C161.524 211.565 161.604 212.04 161.764 212.466C161.934 212.893 162.201 213.234 162.564 213.49C162.926 213.746 163.39 213.874 163.956 213.874ZM169.727 215.25V206.818H171.279L171.359 208.034C171.572 207.704 171.817 207.442 172.095 207.25C172.372 207.058 172.676 206.92 173.007 206.834C173.337 206.749 173.684 206.706 174.047 206.706C174.143 206.706 174.233 206.706 174.319 206.706C174.404 206.706 174.484 206.706 174.559 206.706V208.29H174.047C173.439 208.29 172.932 208.413 172.527 208.658C172.132 208.904 171.839 209.245 171.647 209.682C171.465 210.12 171.375 210.621 171.375 211.186V215.25H169.727ZM51.2959 239.346C50.1119 239.346 49.2052 239.037 48.5759 238.418C47.9572 237.789 47.6479 236.834 47.6479 235.554V230.818H49.2959V235.458C49.2959 235.96 49.3652 236.392 49.5039 236.754C49.6532 237.117 49.8772 237.394 50.1759 237.586C50.4745 237.778 50.8532 237.874 51.3119 237.874C51.7919 237.874 52.1759 237.778 52.4639 237.586C52.7625 237.384 52.9759 237.101 53.1039 236.738C53.2425 236.376 53.3119 235.949 53.3119 235.458V230.818H54.9599V235.554C54.9599 236.856 54.6399 237.816 53.9999 238.434C53.3705 239.042 52.4692 239.346 51.2959 239.346ZM56.9455 239.25V230.818H58.5135L58.5935 232.002C58.8068 231.693 59.0628 231.448 59.3615 231.266C59.6602 231.074 59.9802 230.936 60.3215 230.85C60.6628 230.754 60.9935 230.706 61.3135 230.706C62.1242 230.706 62.7588 230.882 63.2175 231.234C63.6868 231.576 64.0175 232.04 64.2095 232.626C64.4122 233.202 64.5135 233.858 64.5135 234.594V239.25H62.8495V234.93C62.8495 234.589 62.8282 234.253 62.7855 233.922C62.7428 233.592 62.6522 233.298 62.5135 233.042C62.3855 232.776 62.1988 232.568 61.9535 232.418C61.7082 232.258 61.3775 232.178 60.9615 232.178C60.4495 232.178 60.0175 232.317 59.6655 232.594C59.3135 232.872 59.0468 233.245 58.8655 233.714C58.6842 234.184 58.5935 234.712 58.5935 235.298V239.25H56.9455ZM68.2368 239.25L65.6128 230.818H67.4528L69.3088 237.522L71.2608 230.818H73.3248L75.2768 237.522L77.1008 230.818H78.9408L76.3168 239.25H74.2208L72.2688 232.802L70.3328 239.25H68.2368ZM82.7741 239.346C82.3901 239.346 82.0168 239.298 81.6541 239.202C81.3021 239.096 80.9875 238.941 80.7101 238.738C80.4328 238.525 80.2088 238.264 80.0381 237.954C79.8781 237.634 79.7981 237.261 79.7981 236.834C79.7981 236.322 79.8941 235.901 80.0861 235.57C80.2888 235.229 80.5555 234.968 80.8861 234.786C81.2168 234.594 81.5955 234.461 82.0221 234.386C82.4595 234.301 82.9128 234.258 83.3821 234.258H85.4461C85.4461 233.842 85.3821 233.48 85.2541 233.17C85.1261 232.85 84.9235 232.605 84.6461 232.434C84.3795 232.253 84.0221 232.162 83.5741 232.162C83.3075 232.162 83.0515 232.194 82.8061 232.258C82.5715 232.312 82.3688 232.402 82.1981 232.53C82.0275 232.658 81.9101 232.829 81.8461 233.042H80.1181C80.1821 232.637 80.3261 232.29 80.5501 232.002C80.7741 231.704 81.0515 231.458 81.3821 231.266C81.7128 231.074 82.0648 230.936 82.4381 230.85C82.8221 230.754 83.2115 230.706 83.6061 230.706C84.8221 230.706 85.6968 231.064 86.2301 231.778C86.7741 232.482 87.0461 233.453 87.0461 234.69V239.25H85.6221L85.5581 238.178C85.3128 238.509 85.0195 238.76 84.6781 238.93C84.3475 239.101 84.0168 239.213 83.6861 239.266C83.3555 239.32 83.0515 239.346 82.7741 239.346ZM83.0301 237.954C83.5101 237.954 83.9315 237.874 84.2941 237.714C84.6568 237.544 84.9395 237.304 85.1421 236.994C85.3448 236.674 85.4461 236.301 85.4461 235.874V235.522H83.9421C83.6328 235.522 83.3288 235.533 83.0301 235.554C82.7421 235.565 82.4755 235.608 82.2301 235.682C81.9955 235.746 81.8035 235.858 81.6541 236.018C81.5155 236.178 81.4461 236.408 81.4461 236.706C81.4461 236.994 81.5208 237.229 81.6701 237.41C81.8195 237.592 82.0168 237.73 82.2621 237.826C82.5075 237.912 82.7635 237.954 83.0301 237.954ZM89.0236 239.25V230.818H90.5916L90.6716 232.002C90.885 231.693 91.141 231.448 91.4396 231.266C91.7383 231.074 92.0583 230.936 92.3996 230.85C92.741 230.754 93.0716 230.706 93.3916 230.706C94.2023 230.706 94.837 230.882 95.2956 231.234C95.765 231.576 96.0956 232.04 96.2876 232.626C96.4903 233.202 96.5916 233.858 96.5916 234.594V239.25H94.9276V234.93C94.9276 234.589 94.9063 234.253 94.8636 233.922C94.821 233.592 94.7303 233.298 94.5916 233.042C94.4636 232.776 94.277 232.568 94.0316 232.418C93.7863 232.258 93.4556 232.178 93.0396 232.178C92.5276 232.178 92.0956 232.317 91.7436 232.594C91.3916 232.872 91.125 233.245 90.9436 233.714C90.7623 234.184 90.6716 234.712 90.6716 235.298V239.25H89.0236ZM101.819 239.346C100.912 239.346 100.262 239.101 99.8669 238.61C99.4829 238.109 99.2909 237.41 99.2909 236.514V232.29H97.9469V230.818H99.2909V228.37H100.939V230.818H103.515V232.29H100.939V236.242C100.939 236.541 100.966 236.813 101.019 237.058C101.083 237.304 101.2 237.496 101.371 237.634C101.542 237.773 101.787 237.848 102.107 237.858C102.352 237.858 102.566 237.816 102.747 237.73C102.939 237.645 103.094 237.549 103.211 237.442L103.851 238.674C103.648 238.834 103.435 238.968 103.211 239.074C102.998 239.17 102.774 239.24 102.539 239.282C102.304 239.325 102.064 239.346 101.819 239.346ZM108.751 239.346C107.866 239.346 107.125 239.165 106.527 238.802C105.93 238.44 105.477 237.938 105.167 237.298C104.869 236.648 104.719 235.901 104.719 235.058C104.719 234.205 104.874 233.453 105.183 232.802C105.503 232.152 105.962 231.64 106.559 231.266C107.167 230.893 107.898 230.706 108.751 230.706C109.402 230.706 109.967 230.829 110.447 231.074C110.927 231.309 111.322 231.629 111.631 232.034C111.951 232.44 112.186 232.893 112.335 233.394C112.485 233.885 112.549 234.397 112.527 234.93C112.527 235.048 112.522 235.16 112.511 235.266C112.501 235.373 112.49 235.485 112.479 235.602H106.383C106.415 236.029 106.522 236.418 106.703 236.77C106.895 237.122 107.162 237.405 107.503 237.618C107.845 237.821 108.266 237.922 108.767 237.922C109.045 237.922 109.311 237.89 109.567 237.826C109.834 237.752 110.069 237.64 110.271 237.49C110.485 237.33 110.634 237.128 110.719 236.882H112.383C112.245 237.448 111.994 237.917 111.631 238.29C111.279 238.653 110.847 238.92 110.335 239.09C109.834 239.261 109.306 239.346 108.751 239.346ZM106.415 234.29H110.895C110.885 233.874 110.789 233.506 110.607 233.186C110.426 232.856 110.175 232.6 109.855 232.418C109.535 232.226 109.151 232.13 108.703 232.13C108.213 232.13 107.802 232.232 107.471 232.434C107.151 232.637 106.901 232.904 106.719 233.234C106.549 233.554 106.447 233.906 106.415 234.29ZM117.635 239.346C116.792 239.346 116.093 239.16 115.539 238.786C114.995 238.402 114.584 237.885 114.307 237.234C114.04 236.584 113.907 235.853 113.907 235.042C113.907 234.221 114.045 233.485 114.323 232.834C114.6 232.173 115.021 231.656 115.587 231.282C116.152 230.898 116.867 230.706 117.731 230.706C118.051 230.706 118.371 230.744 118.691 230.818C119.021 230.893 119.325 231.01 119.603 231.17C119.891 231.32 120.136 231.522 120.339 231.778V227.938H121.987V239.25H120.403L120.339 238.098C120.147 238.386 119.907 238.626 119.619 238.818C119.341 239 119.032 239.133 118.691 239.218C118.349 239.304 117.997 239.346 117.635 239.346ZM117.907 237.874C118.451 237.874 118.899 237.741 119.251 237.474C119.613 237.208 119.885 236.856 120.067 236.418C120.248 235.981 120.339 235.506 120.339 234.994C120.339 234.472 120.248 234.002 120.067 233.586C119.896 233.16 119.629 232.824 119.267 232.578C118.915 232.322 118.461 232.194 117.907 232.194C117.331 232.194 116.872 232.328 116.531 232.594C116.189 232.85 115.939 233.197 115.779 233.634C115.629 234.072 115.555 234.552 115.555 235.074C115.555 235.458 115.597 235.821 115.683 236.162C115.768 236.493 115.901 236.792 116.083 237.058C116.275 237.314 116.52 237.517 116.819 237.666C117.117 237.805 117.48 237.874 117.907 237.874ZM132.111 239.346C131.225 239.346 130.484 239.165 129.887 238.802C129.289 238.44 128.836 237.938 128.527 237.298C128.228 236.648 128.079 235.901 128.079 235.058C128.079 234.205 128.233 233.453 128.543 232.802C128.863 232.152 129.321 231.64 129.919 231.266C130.527 230.893 131.257 230.706 132.111 230.706C132.761 230.706 133.327 230.829 133.807 231.074C134.287 231.309 134.681 231.629 134.991 232.034C135.311 232.44 135.545 232.893 135.695 233.394C135.844 233.885 135.908 234.397 135.887 234.93C135.887 235.048 135.881 235.16 135.871 235.266C135.86 235.373 135.849 235.485 135.839 235.602H129.743C129.775 236.029 129.881 236.418 130.063 236.77C130.255 237.122 130.521 237.405 130.863 237.618C131.204 237.821 131.625 237.922 132.127 237.922C132.404 237.922 132.671 237.89 132.927 237.826C133.193 237.752 133.428 237.64 133.631 237.49C133.844 237.33 133.993 237.128 134.079 236.882H135.743C135.604 237.448 135.353 237.917 134.991 238.29C134.639 238.653 134.207 238.92 133.695 239.09C133.193 239.261 132.665 239.346 132.111 239.346ZM129.775 234.29H134.255C134.244 233.874 134.148 233.506 133.967 233.186C133.785 232.856 133.535 232.6 133.215 232.418C132.895 232.226 132.511 232.13 132.063 232.13C131.572 232.13 131.161 232.232 130.831 232.434C130.511 232.637 130.26 232.904 130.079 233.234C129.908 233.554 129.807 233.906 129.775 234.29ZM137.586 239.25V230.818H139.138L139.234 231.81C139.426 231.533 139.639 231.32 139.874 231.17C140.119 231.01 140.381 230.893 140.658 230.818C140.935 230.744 141.218 230.706 141.506 230.706C142.071 230.706 142.535 230.824 142.898 231.058C143.271 231.293 143.559 231.613 143.762 232.018C143.965 231.73 144.194 231.49 144.45 231.298C144.706 231.096 144.989 230.946 145.298 230.85C145.607 230.754 145.938 230.706 146.29 230.706C146.919 230.706 147.426 230.845 147.81 231.122C148.205 231.389 148.487 231.752 148.658 232.21C148.839 232.669 148.93 233.197 148.93 233.794V239.25H147.266V234.45C147.266 234.194 147.255 233.938 147.234 233.682C147.213 233.426 147.149 233.186 147.042 232.962C146.946 232.728 146.802 232.541 146.61 232.402C146.429 232.253 146.167 232.178 145.826 232.178C145.495 232.178 145.218 232.253 144.994 232.402C144.781 232.552 144.605 232.754 144.466 233.01C144.338 233.256 144.242 233.522 144.178 233.81C144.125 234.098 144.098 234.386 144.098 234.674V239.25H142.434V234.434C142.434 234.189 142.423 233.938 142.402 233.682C142.381 233.426 142.327 233.186 142.242 232.962C142.157 232.728 142.013 232.541 141.81 232.402C141.618 232.253 141.357 232.178 141.026 232.178C140.546 232.178 140.173 232.317 139.906 232.594C139.65 232.861 139.474 233.192 139.378 233.586C139.282 233.97 139.234 234.338 139.234 234.69V239.25H137.586ZM153.555 239.346C153.171 239.346 152.798 239.298 152.435 239.202C152.083 239.096 151.769 238.941 151.491 238.738C151.214 238.525 150.99 238.264 150.819 237.954C150.659 237.634 150.579 237.261 150.579 236.834C150.579 236.322 150.675 235.901 150.867 235.57C151.07 235.229 151.337 234.968 151.667 234.786C151.998 234.594 152.377 234.461 152.803 234.386C153.241 234.301 153.694 234.258 154.163 234.258H156.227C156.227 233.842 156.163 233.48 156.035 233.17C155.907 232.85 155.705 232.605 155.427 232.434C155.161 232.253 154.803 232.162 154.355 232.162C154.089 232.162 153.833 232.194 153.587 232.258C153.353 232.312 153.15 232.402 152.979 232.53C152.809 232.658 152.691 232.829 152.627 233.042H150.899C150.963 232.637 151.107 232.29 151.331 232.002C151.555 231.704 151.833 231.458 152.163 231.266C152.494 231.074 152.846 230.936 153.219 230.85C153.603 230.754 153.993 230.706 154.387 230.706C155.603 230.706 156.478 231.064 157.011 231.778C157.555 232.482 157.827 233.453 157.827 234.69V239.25H156.403L156.339 238.178C156.094 238.509 155.801 238.76 155.459 238.93C155.129 239.101 154.798 239.213 154.467 239.266C154.137 239.32 153.833 239.346 153.555 239.346ZM153.811 237.954C154.291 237.954 154.713 237.874 155.075 237.714C155.438 237.544 155.721 237.304 155.923 236.994C156.126 236.674 156.227 236.301 156.227 235.874V235.522H154.723C154.414 235.522 154.11 235.533 153.811 235.554C153.523 235.565 153.257 235.608 153.011 235.682C152.777 235.746 152.585 235.858 152.435 236.018C152.297 236.178 152.227 236.408 152.227 236.706C152.227 236.994 152.302 237.229 152.451 237.41C152.601 237.592 152.798 237.73 153.043 237.826C153.289 237.912 153.545 237.954 153.811 237.954ZM159.805 239.25V230.818H161.453V239.25H159.805ZM160.621 229.698C160.301 229.698 160.04 229.602 159.837 229.41C159.645 229.208 159.549 228.952 159.549 228.642C159.549 228.333 159.65 228.082 159.853 227.89C160.056 227.688 160.312 227.586 160.621 227.586C160.909 227.586 161.16 227.688 161.373 227.89C161.597 228.082 161.709 228.333 161.709 228.642C161.709 228.952 161.602 229.208 161.389 229.41C161.186 229.602 160.93 229.698 160.621 229.698ZM163.492 239.25V227.938H165.14V239.25H163.492ZM170.332 239.346C169.937 239.346 169.543 239.309 169.148 239.234C168.753 239.16 168.385 239.026 168.044 238.834C167.703 238.642 167.415 238.386 167.18 238.066C166.945 237.736 166.796 237.33 166.732 236.85H168.412C168.497 237.106 168.647 237.314 168.86 237.474C169.084 237.634 169.329 237.752 169.596 237.826C169.873 237.901 170.145 237.938 170.412 237.938C170.572 237.938 170.748 237.928 170.94 237.906C171.143 237.885 171.335 237.837 171.516 237.762C171.697 237.688 171.847 237.581 171.964 237.442C172.081 237.293 172.14 237.096 172.14 236.85C172.14 236.658 172.087 236.498 171.98 236.37C171.884 236.242 171.745 236.141 171.564 236.066C171.393 235.981 171.185 235.917 170.94 235.874C170.46 235.768 169.943 235.666 169.388 235.57C168.844 235.464 168.364 235.282 167.948 235.026C167.799 234.93 167.665 234.824 167.548 234.706C167.431 234.578 167.329 234.434 167.244 234.274C167.159 234.114 167.095 233.944 167.052 233.762C167.009 233.581 166.988 233.384 166.988 233.17C166.988 232.733 167.073 232.36 167.244 232.05C167.425 231.741 167.671 231.49 167.98 231.298C168.289 231.096 168.641 230.946 169.036 230.85C169.431 230.754 169.847 230.706 170.284 230.706C170.849 230.706 171.361 230.797 171.82 230.978C172.279 231.16 172.657 231.426 172.956 231.778C173.255 232.13 173.431 232.573 173.484 233.106H171.932C171.868 232.818 171.681 232.589 171.372 232.418C171.073 232.237 170.695 232.146 170.236 232.146C170.076 232.146 169.9 232.157 169.708 232.178C169.527 232.2 169.351 232.248 169.18 232.322C169.009 232.397 168.871 232.504 168.764 232.642C168.657 232.77 168.604 232.941 168.604 233.154C168.604 233.357 168.652 233.528 168.748 233.666C168.855 233.805 169.004 233.917 169.196 234.002C169.399 234.088 169.628 234.157 169.884 234.21C170.247 234.296 170.636 234.376 171.052 234.45C171.479 234.525 171.825 234.605 172.092 234.69C172.444 234.786 172.743 234.925 172.988 235.106C173.244 235.288 173.436 235.517 173.564 235.794C173.703 236.072 173.772 236.408 173.772 236.802C173.772 237.314 173.671 237.736 173.468 238.066C173.265 238.386 172.993 238.642 172.652 238.834C172.321 239.026 171.948 239.16 171.532 239.234C171.127 239.309 170.727 239.346 170.332 239.346Z" fill="black"/>
</svg>
