<svg width="220" height="271" viewBox="0 0 220 271" fill="none" xmlns="http://www.w3.org/2000/svg">
<rect y="0.250488" width="220" height="270" fill="#FDD757"/>
<path d="M30.608 64.2505V55.4345H28.336V54.2345C28.7627 54.2025 29.1467 54.1545 29.488 54.0905C29.8293 54.0158 30.1333 53.8932 30.4 53.7225C30.6667 53.5412 30.9013 53.2798 31.104 52.9385H32.304V64.2505H30.608ZM36.5611 64.2505V55.4345H34.2891V54.2345C34.7158 54.2025 35.0998 54.1545 35.4411 54.0905C35.7825 54.0158 36.0865 53.8932 36.3531 53.7225C36.6198 53.5412 36.8545 53.2798 37.0571 52.9385H38.2571V64.2505H36.5611ZM42.1303 64.2505L49.2343 52.9385H50.9303L43.8583 64.2505H42.1303ZM49.8903 64.3465C49.3676 64.3465 48.9196 64.2345 48.5463 64.0105C48.1836 63.7865 47.9009 63.4825 47.6983 63.0985C47.5063 62.7038 47.4103 62.2558 47.4103 61.7545C47.4103 61.2318 47.5063 60.7785 47.6983 60.3945C47.9009 60.0105 48.1889 59.7118 48.5623 59.4985C48.9356 59.2745 49.3783 59.1625 49.8903 59.1625C50.4023 59.1625 50.8396 59.2692 51.2023 59.4825C51.5649 59.6958 51.8423 59.9998 52.0343 60.3945C52.2263 60.7785 52.3223 61.2265 52.3223 61.7385C52.3223 62.2398 52.2209 62.6878 52.0183 63.0825C51.8263 63.4772 51.5489 63.7865 51.1863 64.0105C50.8236 64.2345 50.3916 64.3465 49.8903 64.3465ZM49.8743 63.0345C50.1409 63.0345 50.3543 62.9758 50.5143 62.8585C50.6743 62.7412 50.7863 62.5812 50.8503 62.3785C50.9249 62.1758 50.9623 61.9678 50.9623 61.7545C50.9623 61.5412 50.9249 61.3385 50.8503 61.1465C50.7863 60.9438 50.6743 60.7838 50.5143 60.6665C50.3543 60.5492 50.1409 60.4905 49.8743 60.4905C49.4689 60.4905 49.1809 60.6238 49.0103 60.8905C48.8396 61.1465 48.7543 61.4345 48.7543 61.7545C48.7543 62.0958 48.8396 62.3945 49.0103 62.6505C49.1916 62.9065 49.4796 63.0345 49.8743 63.0345ZM43.2503 57.9945C42.7276 57.9945 42.2796 57.8825 41.9062 57.6585C41.5436 57.4345 41.2663 57.1305 41.0743 56.7465C40.8823 56.3518 40.7863 55.9038 40.7863 55.4025C40.7863 54.8798 40.8823 54.4265 41.0743 54.0425C41.2663 53.6585 41.5489 53.3598 41.9223 53.1465C42.2956 52.9225 42.7436 52.8105 43.2663 52.8105C43.7783 52.8105 44.2156 52.9172 44.5783 53.1305C44.9409 53.3438 45.2183 53.6478 45.4103 54.0425C45.6023 54.4265 45.6983 54.8745 45.6983 55.3865C45.6983 55.8878 45.6023 56.3358 45.4103 56.7305C45.2183 57.1252 44.9356 57.4345 44.5623 57.6585C44.1996 57.8825 43.7623 57.9945 43.2503 57.9945ZM43.2503 56.6825C43.5169 56.6825 43.7249 56.6238 43.8743 56.5065C44.0343 56.3785 44.1516 56.2185 44.2263 56.0265C44.3009 55.8238 44.3383 55.6158 44.3383 55.4025C44.3383 55.1785 44.3009 54.9705 44.2263 54.7785C44.1516 54.5865 44.0343 54.4318 43.8743 54.3145C43.7249 54.1865 43.5169 54.1225 43.2503 54.1225C42.8449 54.1225 42.5516 54.2558 42.3703 54.5225C42.1996 54.7785 42.1143 55.0718 42.1143 55.4025C42.1143 55.7438 42.1996 56.0425 42.3703 56.2985C42.5516 56.5545 42.8449 56.6825 43.2503 56.6825Z" fill="black"/>
<path d="M24 79.2505H203.5" stroke="black" stroke-opacity="0.5"/>
<path d="M48.1989 215.25L45.2229 203.938H47.1269L49.4949 213.618L51.8149 203.938H54.2309L56.5349 213.618L58.9029 203.938H60.7109L57.7509 215.25H55.2869L52.9829 205.73L50.6789 215.25H48.1989ZM65.6106 215.346C64.7253 215.346 63.984 215.165 63.3866 214.802C62.7893 214.44 62.336 213.938 62.0266 213.298C61.728 212.648 61.5786 211.901 61.5786 211.058C61.5786 210.205 61.7333 209.453 62.0426 208.802C62.3626 208.152 62.8213 207.64 63.4186 207.266C64.0266 206.893 64.7573 206.706 65.6106 206.706C66.2613 206.706 66.8266 206.829 67.3066 207.074C67.7866 207.309 68.1813 207.629 68.4906 208.034C68.8106 208.44 69.0453 208.893 69.1946 209.394C69.344 209.885 69.408 210.397 69.3866 210.93C69.3866 211.048 69.3813 211.16 69.3706 211.266C69.36 211.373 69.3493 211.485 69.3386 211.602H63.2426C63.2746 212.029 63.3813 212.418 63.5626 212.77C63.7546 213.122 64.0213 213.405 64.3626 213.618C64.704 213.821 65.1253 213.922 65.6266 213.922C65.904 213.922 66.1706 213.89 66.4266 213.826C66.6933 213.752 66.928 213.64 67.1306 213.49C67.344 213.33 67.4933 213.128 67.5786 212.882H69.2426C69.104 213.448 68.8533 213.917 68.4906 214.29C68.1386 214.653 67.7066 214.92 67.1946 215.09C66.6933 215.261 66.1653 215.346 65.6106 215.346ZM63.2746 210.29H67.7546C67.744 209.874 67.648 209.506 67.4666 209.186C67.2853 208.856 67.0346 208.6 66.7146 208.418C66.3946 208.226 66.0106 208.13 65.5626 208.13C65.072 208.13 64.6613 208.232 64.3306 208.434C64.0106 208.637 63.76 208.904 63.5786 209.234C63.408 209.554 63.3066 209.906 63.2746 210.29ZM74.7981 215.346C73.9128 215.346 73.1715 215.165 72.5741 214.802C71.9768 214.44 71.5235 213.938 71.2141 213.298C70.9155 212.648 70.7661 211.901 70.7661 211.058C70.7661 210.205 70.9208 209.453 71.2301 208.802C71.5501 208.152 72.0088 207.64 72.6061 207.266C73.2141 206.893 73.9448 206.706 74.7981 206.706C75.4488 206.706 76.0141 206.829 76.4941 207.074C76.9741 207.309 77.3688 207.629 77.6781 208.034C77.9981 208.44 78.2328 208.893 78.3821 209.394C78.5315 209.885 78.5955 210.397 78.5741 210.93C78.5741 211.048 78.5688 211.16 78.5581 211.266C78.5475 211.373 78.5368 211.485 78.5261 211.602H72.4301C72.4621 212.029 72.5688 212.418 72.7501 212.77C72.9421 213.122 73.2088 213.405 73.5501 213.618C73.8915 213.821 74.3128 213.922 74.8141 213.922C75.0915 213.922 75.3581 213.89 75.6141 213.826C75.8808 213.752 76.1155 213.64 76.3181 213.49C76.5315 213.33 76.6808 213.128 76.7661 212.882H78.4301C78.2915 213.448 78.0408 213.917 77.6781 214.29C77.3261 214.653 76.8941 214.92 76.3821 215.09C75.8808 215.261 75.3528 215.346 74.7981 215.346ZM72.4621 210.29H76.9421C76.9315 209.874 76.8355 209.506 76.6541 209.186C76.4728 208.856 76.2221 208.6 75.9021 208.418C75.5821 208.226 75.1981 208.13 74.7501 208.13C74.2595 208.13 73.8488 208.232 73.5181 208.434C73.1981 208.637 72.9475 208.904 72.7661 209.234C72.5955 209.554 72.4941 209.906 72.4621 210.29ZM80.2736 215.25V203.938H81.9216V210.322H83.2816L85.6496 206.818H87.5056L84.7376 210.834L87.7456 215.25H85.8096L83.4096 211.778H81.9216V215.25H80.2736ZM88.8049 215.25V203.938H90.4529V215.25H88.8049ZM96.2044 219.058C95.5537 219.058 94.9244 218.968 94.3164 218.786C93.7084 218.616 93.1537 218.312 92.6524 217.874L93.3084 216.562C93.6924 216.872 94.1137 217.117 94.5724 217.298C95.0417 217.48 95.5377 217.57 96.0604 217.57C96.9244 217.57 97.5484 217.336 97.9324 216.866C98.3164 216.397 98.5084 215.784 98.5084 215.026V214.21C98.3164 214.477 98.0764 214.701 97.7884 214.882C97.511 215.053 97.2017 215.176 96.8604 215.25C96.519 215.336 96.1724 215.378 95.8204 215.378C94.999 215.378 94.343 215.213 93.8524 214.882C93.3724 214.541 93.0257 214.077 92.8124 213.49C92.6097 212.904 92.5084 212.226 92.5084 211.458V206.818H94.1724V211.058C94.1724 211.4 94.1937 211.741 94.2364 212.082C94.279 212.424 94.3697 212.733 94.5084 213.01C94.647 213.277 94.8497 213.496 95.1164 213.666C95.383 213.826 95.7457 213.906 96.2044 213.906C96.7804 213.906 97.2337 213.768 97.5644 213.49C97.895 213.202 98.1297 212.829 98.2684 212.37C98.407 211.901 98.4764 211.394 98.4764 210.85V206.818H100.124V214.85C100.124 215.512 100.044 216.104 99.8844 216.626C99.735 217.149 99.495 217.592 99.1644 217.954C98.8444 218.317 98.439 218.589 97.9484 218.77C97.4684 218.962 96.887 219.058 96.2044 219.058ZM106.524 215.25V206.818H108.076L108.156 208.034C108.369 207.704 108.614 207.442 108.892 207.25C109.169 207.058 109.473 206.92 109.804 206.834C110.134 206.749 110.481 206.706 110.844 206.706C110.94 206.706 111.03 206.706 111.116 206.706C111.201 206.706 111.281 206.706 111.356 206.706V208.29H110.844C110.236 208.29 109.729 208.413 109.324 208.658C108.929 208.904 108.636 209.245 108.444 209.682C108.262 210.12 108.172 210.621 108.172 211.186V215.25H106.524ZM116.158 215.346C115.272 215.346 114.531 215.165 113.934 214.802C113.336 214.44 112.883 213.938 112.574 213.298C112.275 212.648 112.126 211.901 112.126 211.058C112.126 210.205 112.28 209.453 112.59 208.802C112.91 208.152 113.368 207.64 113.966 207.266C114.574 206.893 115.304 206.706 116.158 206.706C116.808 206.706 117.374 206.829 117.854 207.074C118.334 207.309 118.728 207.629 119.038 208.034C119.358 208.44 119.592 208.893 119.742 209.394C119.891 209.885 119.955 210.397 119.934 210.93C119.934 211.048 119.928 211.16 119.918 211.266C119.907 211.373 119.896 211.485 119.885 211.602H113.789C113.822 212.029 113.928 212.418 114.11 212.77C114.302 213.122 114.568 213.405 114.91 213.618C115.251 213.821 115.672 213.922 116.174 213.922C116.451 213.922 116.718 213.89 116.974 213.826C117.24 213.752 117.475 213.64 117.678 213.49C117.891 213.33 118.04 213.128 118.126 212.882H119.79C119.651 213.448 119.4 213.917 119.038 214.29C118.686 214.653 118.254 214.92 117.742 215.09C117.24 215.261 116.712 215.346 116.158 215.346ZM113.822 210.29H118.302C118.291 209.874 118.195 209.506 118.014 209.186C117.832 208.856 117.582 208.6 117.262 208.418C116.942 208.226 116.558 208.13 116.11 208.13C115.619 208.13 115.208 208.232 114.878 208.434C114.558 208.637 114.307 208.904 114.126 209.234C113.955 209.554 113.854 209.906 113.822 210.29ZM121.633 218.322V206.818H123.201L123.281 208.018C123.58 207.581 123.969 207.256 124.449 207.042C124.929 206.818 125.452 206.706 126.017 206.706C126.86 206.706 127.553 206.898 128.097 207.282C128.641 207.656 129.046 208.173 129.313 208.834C129.58 209.485 129.713 210.216 129.713 211.026C129.713 211.858 129.574 212.6 129.297 213.25C129.03 213.901 128.614 214.413 128.049 214.786C127.494 215.16 126.79 215.346 125.937 215.346C125.532 215.346 125.158 215.304 124.817 215.218C124.486 215.133 124.193 215.01 123.937 214.85C123.692 214.68 123.473 214.482 123.281 214.258V218.322H121.633ZM125.729 213.874C126.305 213.874 126.764 213.746 127.105 213.49C127.446 213.224 127.692 212.877 127.841 212.45C127.99 212.024 128.065 211.56 128.065 211.058C128.065 210.536 127.985 210.061 127.825 209.634C127.676 209.197 127.425 208.85 127.073 208.594C126.732 208.328 126.273 208.194 125.697 208.194C125.174 208.194 124.732 208.328 124.369 208.594C124.006 208.85 123.729 209.197 123.537 209.634C123.356 210.072 123.265 210.546 123.265 211.058C123.265 211.581 123.35 212.061 123.521 212.498C123.702 212.925 123.974 213.261 124.337 213.506C124.71 213.752 125.174 213.874 125.729 213.874ZM135.174 215.346C134.3 215.346 133.558 215.17 132.95 214.818C132.342 214.456 131.878 213.949 131.558 213.298C131.249 212.648 131.094 211.896 131.094 211.042C131.094 210.178 131.254 209.426 131.574 208.786C131.894 208.136 132.358 207.629 132.966 207.266C133.574 206.893 134.316 206.706 135.19 206.706C136.065 206.706 136.806 206.893 137.414 207.266C138.022 207.629 138.481 208.136 138.79 208.786C139.1 209.437 139.254 210.194 139.254 211.058C139.254 211.901 139.094 212.648 138.774 213.298C138.465 213.949 138.006 214.456 137.398 214.818C136.801 215.17 136.06 215.346 135.174 215.346ZM135.174 213.874C135.75 213.874 136.214 213.746 136.566 213.49C136.929 213.234 137.196 212.893 137.366 212.466C137.537 212.029 137.622 211.554 137.622 211.042C137.622 210.53 137.537 210.061 137.366 209.634C137.196 209.208 136.929 208.866 136.566 208.61C136.214 208.344 135.75 208.21 135.174 208.21C134.609 208.21 134.145 208.344 133.782 208.61C133.42 208.866 133.153 209.208 132.982 209.634C132.822 210.061 132.742 210.53 132.742 211.042C132.742 211.565 132.822 212.04 132.982 212.466C133.153 212.893 133.42 213.234 133.782 213.49C134.145 213.746 134.609 213.874 135.174 213.874ZM140.946 215.25V206.818H142.498L142.578 208.034C142.791 207.704 143.036 207.442 143.314 207.25C143.591 207.058 143.895 206.92 144.226 206.834C144.556 206.749 144.903 206.706 145.266 206.706C145.362 206.706 145.452 206.706 145.538 206.706C145.623 206.706 145.703 206.706 145.778 206.706V208.29H145.266C144.658 208.29 144.151 208.413 143.746 208.658C143.351 208.904 143.058 209.245 142.866 209.682C142.684 210.12 142.594 210.621 142.594 211.186V215.25H140.946ZM150.288 215.346C149.381 215.346 148.73 215.101 148.336 214.61C147.952 214.109 147.76 213.41 147.76 212.514V208.29H146.416V206.818H147.76V204.37H149.408V206.818H151.984V208.29H149.408V212.242C149.408 212.541 149.434 212.813 149.488 213.058C149.552 213.304 149.669 213.496 149.84 213.634C150.01 213.773 150.256 213.848 150.576 213.858C150.821 213.858 151.034 213.816 151.216 213.73C151.408 213.645 151.562 213.549 151.68 213.442L152.32 214.674C152.117 214.834 151.904 214.968 151.68 215.074C151.466 215.17 151.242 215.24 151.008 215.282C150.773 215.325 150.533 215.346 150.288 215.346ZM161.659 215.346C160.784 215.346 160.043 215.17 159.435 214.818C158.827 214.456 158.363 213.949 158.043 213.298C157.733 212.648 157.579 211.896 157.579 211.042C157.579 210.178 157.739 209.426 158.059 208.786C158.379 208.136 158.843 207.629 159.451 207.266C160.059 206.893 160.8 206.706 161.675 206.706C162.549 206.706 163.291 206.893 163.899 207.266C164.507 207.629 164.965 208.136 165.275 208.786C165.584 209.437 165.739 210.194 165.739 211.058C165.739 211.901 165.579 212.648 165.259 213.298C164.949 213.949 164.491 214.456 163.883 214.818C163.285 215.17 162.544 215.346 161.659 215.346ZM161.659 213.874C162.235 213.874 162.699 213.746 163.051 213.49C163.413 213.234 163.68 212.893 163.851 212.466C164.021 212.029 164.107 211.554 164.107 211.042C164.107 210.53 164.021 210.061 163.851 209.634C163.68 209.208 163.413 208.866 163.051 208.61C162.699 208.344 162.235 208.21 161.659 208.21C161.093 208.21 160.629 208.344 160.267 208.61C159.904 208.866 159.637 209.208 159.467 209.634C159.307 210.061 159.227 210.53 159.227 211.042C159.227 211.565 159.307 212.04 159.467 212.466C159.637 212.893 159.904 213.234 160.267 213.49C160.629 213.746 161.093 213.874 161.659 213.874ZM167.43 215.25V206.818H168.998L169.078 208.002C169.291 207.693 169.547 207.448 169.846 207.266C170.145 207.074 170.465 206.936 170.806 206.85C171.147 206.754 171.478 206.706 171.798 206.706C172.609 206.706 173.243 206.882 173.702 207.234C174.171 207.576 174.502 208.04 174.694 208.626C174.897 209.202 174.998 209.858 174.998 210.594V215.25H173.334V210.93C173.334 210.589 173.313 210.253 173.27 209.922C173.227 209.592 173.137 209.298 172.998 209.042C172.87 208.776 172.683 208.568 172.438 208.418C172.193 208.258 171.862 208.178 171.446 208.178C170.934 208.178 170.502 208.317 170.15 208.594C169.798 208.872 169.531 209.245 169.35 209.714C169.169 210.184 169.078 210.712 169.078 211.298V215.25H167.43ZM38.5549 239.25V230.818H40.1229L40.2029 232.002C40.4162 231.693 40.6722 231.448 40.9709 231.266C41.2695 231.074 41.5895 230.936 41.9309 230.85C42.2722 230.754 42.6029 230.706 42.9229 230.706C43.7335 230.706 44.3682 230.882 44.8269 231.234C45.2962 231.576 45.6269 232.04 45.8189 232.626C46.0215 233.202 46.1229 233.858 46.1229 234.594V239.25H44.4589V234.93C44.4589 234.589 44.4375 234.253 44.3949 233.922C44.3522 233.592 44.2615 233.298 44.1229 233.042C43.9949 232.776 43.8082 232.568 43.5629 232.418C43.3175 232.258 42.9869 232.178 42.5709 232.178C42.0589 232.178 41.6269 232.317 41.2749 232.594C40.9229 232.872 40.6562 233.245 40.4749 233.714C40.2935 234.184 40.2029 234.712 40.2029 235.298V239.25H38.5549ZM51.7981 239.346C50.9128 239.346 50.1715 239.165 49.5741 238.802C48.9768 238.44 48.5235 237.938 48.2141 237.298C47.9155 236.648 47.7661 235.901 47.7661 235.058C47.7661 234.205 47.9208 233.453 48.2301 232.802C48.5501 232.152 49.0088 231.64 49.6061 231.266C50.2141 230.893 50.9448 230.706 51.7981 230.706C52.4488 230.706 53.0141 230.829 53.4941 231.074C53.9741 231.309 54.3688 231.629 54.6781 232.034C54.9981 232.44 55.2328 232.893 55.3821 233.394C55.5315 233.885 55.5955 234.397 55.5741 234.93C55.5741 235.048 55.5688 235.16 55.5581 235.266C55.5475 235.373 55.5368 235.485 55.5261 235.602H49.4301C49.4621 236.029 49.5688 236.418 49.7501 236.77C49.9421 237.122 50.2088 237.405 50.5501 237.618C50.8915 237.821 51.3128 237.922 51.8141 237.922C52.0915 237.922 52.3581 237.89 52.6141 237.826C52.8808 237.752 53.1155 237.64 53.3181 237.49C53.5315 237.33 53.6808 237.128 53.7661 236.882H55.4301C55.2915 237.448 55.0408 237.917 54.6781 238.29C54.3261 238.653 53.8941 238.92 53.3821 239.09C52.8808 239.261 52.3528 239.346 51.7981 239.346ZM49.4621 234.29H53.9421C53.9315 233.874 53.8355 233.506 53.6541 233.186C53.4728 232.856 53.2221 232.6 52.9021 232.418C52.5821 232.226 52.1981 232.13 51.7501 232.13C51.2595 232.13 50.8488 232.232 50.5181 232.434C50.1981 232.637 49.9475 232.904 49.7661 233.234C49.5955 233.554 49.4941 233.906 49.4621 234.29ZM59.0336 239.25L56.4096 230.818H58.2496L60.1056 237.522L62.0576 230.818H64.1216L66.0736 237.522L67.8976 230.818H69.7376L67.1136 239.25H65.0176L63.0656 232.802L61.1296 239.25H59.0336ZM78.4256 239.346C78.031 239.346 77.6363 239.309 77.2416 239.234C76.847 239.16 76.479 239.026 76.1376 238.834C75.7963 238.642 75.5083 238.386 75.2736 238.066C75.039 237.736 74.8896 237.33 74.8256 236.85H76.5056C76.591 237.106 76.7403 237.314 76.9536 237.474C77.1776 237.634 77.423 237.752 77.6896 237.826C77.967 237.901 78.239 237.938 78.5056 237.938C78.6656 237.938 78.8416 237.928 79.0336 237.906C79.2363 237.885 79.4283 237.837 79.6096 237.762C79.791 237.688 79.9403 237.581 80.0576 237.442C80.175 237.293 80.2336 237.096 80.2336 236.85C80.2336 236.658 80.1803 236.498 80.0736 236.37C79.9776 236.242 79.839 236.141 79.6576 236.066C79.487 235.981 79.279 235.917 79.0336 235.874C78.5536 235.768 78.0363 235.666 77.4816 235.57C76.9376 235.464 76.4576 235.282 76.0416 235.026C75.8923 234.93 75.759 234.824 75.6416 234.706C75.5243 234.578 75.423 234.434 75.3376 234.274C75.2523 234.114 75.1883 233.944 75.1456 233.762C75.103 233.581 75.0816 233.384 75.0816 233.17C75.0816 232.733 75.167 232.36 75.3376 232.05C75.519 231.741 75.7643 231.49 76.0736 231.298C76.383 231.096 76.735 230.946 77.1296 230.85C77.5243 230.754 77.9403 230.706 78.3776 230.706C78.943 230.706 79.455 230.797 79.9136 230.978C80.3723 231.16 80.751 231.426 81.0496 231.778C81.3483 232.13 81.5243 232.573 81.5776 233.106H80.0256C79.9616 232.818 79.775 232.589 79.4656 232.418C79.167 232.237 78.7883 232.146 78.3296 232.146C78.1696 232.146 77.9936 232.157 77.8016 232.178C77.6203 232.2 77.4443 232.248 77.2736 232.322C77.103 232.397 76.9643 232.504 76.8576 232.642C76.751 232.77 76.6976 232.941 76.6976 233.154C76.6976 233.357 76.7456 233.528 76.8416 233.666C76.9483 233.805 77.0976 233.917 77.2896 234.002C77.4923 234.088 77.7216 234.157 77.9776 234.21C78.3403 234.296 78.7296 234.376 79.1456 234.45C79.5723 234.525 79.919 234.605 80.1856 234.69C80.5376 234.786 80.8363 234.925 81.0816 235.106C81.3376 235.288 81.5296 235.517 81.6576 235.794C81.7963 236.072 81.8656 236.408 81.8656 236.802C81.8656 237.314 81.7643 237.736 81.5616 238.066C81.359 238.386 81.087 238.642 80.7456 238.834C80.415 239.026 80.0416 239.16 79.6256 239.234C79.2203 239.309 78.8203 239.346 78.4256 239.346ZM83.4299 242.322V230.818H84.9979L85.0779 232.018C85.3765 231.581 85.7659 231.256 86.2459 231.042C86.7259 230.818 87.2485 230.706 87.8139 230.706C88.6565 230.706 89.3499 230.898 89.8939 231.282C90.4379 231.656 90.8432 232.173 91.1099 232.834C91.3765 233.485 91.5099 234.216 91.5099 235.026C91.5099 235.858 91.3712 236.6 91.0939 237.25C90.8272 237.901 90.4112 238.413 89.8459 238.786C89.2912 239.16 88.5872 239.346 87.7339 239.346C87.3285 239.346 86.9552 239.304 86.6139 239.218C86.2832 239.133 85.9899 239.01 85.7339 238.85C85.4885 238.68 85.2699 238.482 85.0779 238.258V242.322H83.4299ZM87.5259 237.874C88.1019 237.874 88.5605 237.746 88.9019 237.49C89.2432 237.224 89.4885 236.877 89.6379 236.45C89.7872 236.024 89.8619 235.56 89.8619 235.058C89.8619 234.536 89.7819 234.061 89.6219 233.634C89.4725 233.197 89.2219 232.85 88.8699 232.594C88.5285 232.328 88.0699 232.194 87.4939 232.194C86.9712 232.194 86.5285 232.328 86.1659 232.594C85.8032 232.85 85.5259 233.197 85.3339 233.634C85.1525 234.072 85.0619 234.546 85.0619 235.058C85.0619 235.581 85.1472 236.061 85.3179 236.498C85.4992 236.925 85.7712 237.261 86.1339 237.506C86.5072 237.752 86.9712 237.874 87.5259 237.874ZM95.8991 239.346C95.5151 239.346 95.1418 239.298 94.7791 239.202C94.4271 239.096 94.1125 238.941 93.8351 238.738C93.5578 238.525 93.3338 238.264 93.1631 237.954C93.0031 237.634 92.9231 237.261 92.9231 236.834C92.9231 236.322 93.0191 235.901 93.2111 235.57C93.4138 235.229 93.6805 234.968 94.0111 234.786C94.3418 234.594 94.7205 234.461 95.1471 234.386C95.5845 234.301 96.0378 234.258 96.5071 234.258H98.5711C98.5711 233.842 98.5071 233.48 98.3791 233.17C98.2511 232.85 98.0485 232.605 97.7711 232.434C97.5045 232.253 97.1471 232.162 96.6991 232.162C96.4325 232.162 96.1765 232.194 95.9311 232.258C95.6965 232.312 95.4938 232.402 95.3231 232.53C95.1525 232.658 95.0351 232.829 94.9711 233.042H93.2431C93.3071 232.637 93.4511 232.29 93.6751 232.002C93.8991 231.704 94.1765 231.458 94.5071 231.266C94.8378 231.074 95.1898 230.936 95.5631 230.85C95.9471 230.754 96.3365 230.706 96.7311 230.706C97.9471 230.706 98.8218 231.064 99.3551 231.778C99.8991 232.482 100.171 233.453 100.171 234.69V239.25H98.7471L98.6831 238.178C98.4378 238.509 98.1445 238.76 97.8031 238.93C97.4725 239.101 97.1418 239.213 96.8111 239.266C96.4805 239.32 96.1765 239.346 95.8991 239.346ZM96.1551 237.954C96.6351 237.954 97.0565 237.874 97.4191 237.714C97.7818 237.544 98.0645 237.304 98.2671 236.994C98.4698 236.674 98.5711 236.301 98.5711 235.874V235.522H97.0671C96.7578 235.522 96.4538 235.533 96.1551 235.554C95.8671 235.565 95.6005 235.608 95.3551 235.682C95.1205 235.746 94.9285 235.858 94.7791 236.018C94.6405 236.178 94.5711 236.408 94.5711 236.706C94.5711 236.994 94.6458 237.229 94.7951 237.41C94.9445 237.592 95.1418 237.73 95.3871 237.826C95.6325 237.912 95.8885 237.954 96.1551 237.954ZM102.149 239.25V230.818H103.701L103.797 231.81C103.989 231.533 104.202 231.32 104.437 231.17C104.682 231.01 104.943 230.893 105.221 230.818C105.498 230.744 105.781 230.706 106.069 230.706C106.634 230.706 107.098 230.824 107.461 231.058C107.834 231.293 108.122 231.613 108.325 232.018C108.527 231.73 108.757 231.49 109.013 231.298C109.269 231.096 109.551 230.946 109.861 230.85C110.17 230.754 110.501 230.706 110.853 230.706C111.482 230.706 111.989 230.845 112.373 231.122C112.767 231.389 113.05 231.752 113.221 232.21C113.402 232.669 113.493 233.197 113.493 233.794V239.25H111.829V234.45C111.829 234.194 111.818 233.938 111.797 233.682C111.775 233.426 111.711 233.186 111.605 232.962C111.509 232.728 111.365 232.541 111.173 232.402C110.991 232.253 110.73 232.178 110.389 232.178C110.058 232.178 109.781 232.253 109.557 232.402C109.343 232.552 109.167 232.754 109.029 233.01C108.901 233.256 108.805 233.522 108.741 233.81C108.687 234.098 108.661 234.386 108.661 234.674V239.25H106.997V234.434C106.997 234.189 106.986 233.938 106.965 233.682C106.943 233.426 106.89 233.186 106.805 232.962C106.719 232.728 106.575 232.541 106.373 232.402C106.181 232.253 105.919 232.178 105.589 232.178C105.109 232.178 104.735 232.317 104.469 232.594C104.213 232.861 104.037 233.192 103.941 233.586C103.845 233.97 103.797 234.338 103.797 234.69V239.25H102.149ZM119.821 242.322V230.818H121.389L121.469 232.018C121.767 231.581 122.157 231.256 122.637 231.042C123.117 230.818 123.639 230.706 124.205 230.706C125.047 230.706 125.741 230.898 126.285 231.282C126.829 231.656 127.234 232.173 127.501 232.834C127.767 233.485 127.901 234.216 127.901 235.026C127.901 235.858 127.762 236.6 127.485 237.25C127.218 237.901 126.802 238.413 126.237 238.786C125.682 239.16 124.978 239.346 124.125 239.346C123.719 239.346 123.346 239.304 123.005 239.218C122.674 239.133 122.381 239.01 122.125 238.85C121.879 238.68 121.661 238.482 121.469 238.258V242.322H119.821ZM123.917 237.874C124.493 237.874 124.951 237.746 125.293 237.49C125.634 237.224 125.879 236.877 126.029 236.45C126.178 236.024 126.253 235.56 126.253 235.058C126.253 234.536 126.173 234.061 126.013 233.634C125.863 233.197 125.613 232.85 125.261 232.594C124.919 232.328 124.461 232.194 123.885 232.194C123.362 232.194 122.919 232.328 122.557 232.594C122.194 232.85 121.917 233.197 121.725 233.634C121.543 234.072 121.453 234.546 121.453 235.058C121.453 235.581 121.538 236.061 121.709 236.498C121.89 236.925 122.162 237.261 122.525 237.506C122.898 237.752 123.362 237.874 123.917 237.874ZM132.29 239.346C131.906 239.346 131.532 239.298 131.17 239.202C130.818 239.096 130.503 238.941 130.226 238.738C129.948 238.525 129.724 238.264 129.554 237.954C129.394 237.634 129.314 237.261 129.314 236.834C129.314 236.322 129.41 235.901 129.602 235.57C129.804 235.229 130.071 234.968 130.402 234.786C130.732 234.594 131.111 234.461 131.538 234.386C131.975 234.301 132.428 234.258 132.898 234.258H134.962C134.962 233.842 134.898 233.48 134.77 233.17C134.642 232.85 134.439 232.605 134.162 232.434C133.895 232.253 133.538 232.162 133.09 232.162C132.823 232.162 132.567 232.194 132.322 232.258C132.087 232.312 131.884 232.402 131.714 232.53C131.543 232.658 131.426 232.829 131.362 233.042H129.634C129.698 232.637 129.842 232.29 130.066 232.002C130.29 231.704 130.567 231.458 130.898 231.266C131.228 231.074 131.58 230.936 131.954 230.85C132.338 230.754 132.727 230.706 133.122 230.706C134.338 230.706 135.212 231.064 135.746 231.778C136.29 232.482 136.562 233.453 136.562 234.69V239.25H135.138L135.074 238.178C134.828 238.509 134.535 238.76 134.194 238.93C133.863 239.101 133.532 239.213 133.202 239.266C132.871 239.32 132.567 239.346 132.29 239.346ZM132.546 237.954C133.026 237.954 133.447 237.874 133.81 237.714C134.172 237.544 134.455 237.304 134.658 236.994C134.86 236.674 134.962 236.301 134.962 235.874V235.522H133.458C133.148 235.522 132.844 235.533 132.546 235.554C132.258 235.565 131.991 235.608 131.746 235.682C131.511 235.746 131.319 235.858 131.17 236.018C131.031 236.178 130.962 236.408 130.962 236.706C130.962 236.994 131.036 237.229 131.186 237.41C131.335 237.592 131.532 237.73 131.778 237.826C132.023 237.912 132.279 237.954 132.546 237.954ZM141.803 239.346C140.897 239.346 140.246 239.101 139.851 238.61C139.467 238.109 139.275 237.41 139.275 236.514V232.29H137.931V230.818H139.275V228.37H140.923V230.818H143.499V232.29H140.923V236.242C140.923 236.541 140.95 236.813 141.003 237.058C141.067 237.304 141.185 237.496 141.355 237.634C141.526 237.773 141.771 237.848 142.091 237.858C142.337 237.858 142.55 237.816 142.731 237.73C142.923 237.645 143.078 237.549 143.195 237.442L143.835 238.674C143.633 238.834 143.419 238.968 143.195 239.074C142.982 239.17 142.758 239.24 142.523 239.282C142.289 239.325 142.049 239.346 141.803 239.346ZM148.288 239.346C147.381 239.346 146.73 239.101 146.336 238.61C145.952 238.109 145.76 237.41 145.76 236.514V232.29H144.416V230.818H145.76V228.37H147.408V230.818H149.984V232.29H147.408V236.242C147.408 236.541 147.434 236.813 147.488 237.058C147.552 237.304 147.669 237.496 147.84 237.634C148.01 237.773 148.256 237.848 148.576 237.858C148.821 237.858 149.034 237.816 149.216 237.73C149.408 237.645 149.562 237.549 149.68 237.442L150.32 238.674C150.117 238.834 149.904 238.968 149.68 239.074C149.466 239.17 149.242 239.24 149.008 239.282C148.773 239.325 148.533 239.346 148.288 239.346ZM155.22 239.346C154.335 239.346 153.593 239.165 152.996 238.802C152.399 238.44 151.945 237.938 151.636 237.298C151.337 236.648 151.188 235.901 151.188 235.058C151.188 234.205 151.343 233.453 151.652 232.802C151.972 232.152 152.431 231.64 153.028 231.266C153.636 230.893 154.367 230.706 155.22 230.706C155.871 230.706 156.436 230.829 156.916 231.074C157.396 231.309 157.791 231.629 158.1 232.034C158.42 232.44 158.655 232.893 158.804 233.394C158.953 233.885 159.017 234.397 158.996 234.93C158.996 235.048 158.991 235.16 158.98 235.266C158.969 235.373 158.959 235.485 158.948 235.602H152.852C152.884 236.029 152.991 236.418 153.172 236.77C153.364 237.122 153.631 237.405 153.972 237.618C154.313 237.821 154.735 237.922 155.236 237.922C155.513 237.922 155.78 237.89 156.036 237.826C156.303 237.752 156.537 237.64 156.74 237.49C156.953 237.33 157.103 237.128 157.188 236.882H158.852C158.713 237.448 158.463 237.917 158.1 238.29C157.748 238.653 157.316 238.92 156.804 239.09C156.303 239.261 155.775 239.346 155.22 239.346ZM152.884 234.29H157.364C157.353 233.874 157.257 233.506 157.076 233.186C156.895 232.856 156.644 232.6 156.324 232.418C156.004 232.226 155.62 232.13 155.172 232.13C154.681 232.13 154.271 232.232 153.94 232.434C153.62 232.637 153.369 232.904 153.188 233.234C153.017 233.554 152.916 233.906 152.884 234.29ZM160.696 239.25V230.818H162.248L162.328 232.034C162.541 231.704 162.786 231.442 163.064 231.25C163.341 231.058 163.645 230.92 163.976 230.834C164.306 230.749 164.653 230.706 165.016 230.706C165.112 230.706 165.202 230.706 165.288 230.706C165.373 230.706 165.453 230.706 165.528 230.706V232.29H165.016C164.408 232.29 163.901 232.413 163.496 232.658C163.101 232.904 162.808 233.245 162.616 233.682C162.434 234.12 162.344 234.621 162.344 235.186V239.25H160.696ZM166.774 239.25V230.818H168.342L168.422 232.002C168.635 231.693 168.891 231.448 169.19 231.266C169.488 231.074 169.808 230.936 170.15 230.85C170.491 230.754 170.822 230.706 171.142 230.706C171.952 230.706 172.587 230.882 173.046 231.234C173.515 231.576 173.846 232.04 174.038 232.626C174.24 233.202 174.342 233.858 174.342 234.594V239.25H172.678V234.93C172.678 234.589 172.656 234.253 172.614 233.922C172.571 233.592 172.48 233.298 172.342 233.042C172.214 232.776 172.027 232.568 171.782 232.418C171.536 232.258 171.206 232.178 170.79 232.178C170.278 232.178 169.846 232.317 169.494 232.594C169.142 232.872 168.875 233.245 168.694 233.714C168.512 234.184 168.422 234.712 168.422 235.298V239.25H166.774ZM179.457 239.346C179.062 239.346 178.668 239.309 178.273 239.234C177.878 239.16 177.51 239.026 177.169 238.834C176.828 238.642 176.54 238.386 176.305 238.066C176.07 237.736 175.921 237.33 175.857 236.85H177.537C177.622 237.106 177.772 237.314 177.985 237.474C178.209 237.634 178.454 237.752 178.721 237.826C178.998 237.901 179.27 237.938 179.537 237.938C179.697 237.938 179.873 237.928 180.065 237.906C180.268 237.885 180.46 237.837 180.641 237.762C180.822 237.688 180.972 237.581 181.089 237.442C181.206 237.293 181.265 237.096 181.265 236.85C181.265 236.658 181.212 236.498 181.105 236.37C181.009 236.242 180.87 236.141 180.689 236.066C180.518 235.981 180.31 235.917 180.065 235.874C179.585 235.768 179.068 235.666 178.513 235.57C177.969 235.464 177.489 235.282 177.073 235.026C176.924 234.93 176.79 234.824 176.673 234.706C176.556 234.578 176.454 234.434 176.369 234.274C176.284 234.114 176.22 233.944 176.177 233.762C176.134 233.581 176.113 233.384 176.113 233.17C176.113 232.733 176.198 232.36 176.369 232.05C176.55 231.741 176.796 231.49 177.105 231.298C177.414 231.096 177.766 230.946 178.161 230.85C178.556 230.754 178.972 230.706 179.409 230.706C179.974 230.706 180.486 230.797 180.945 230.978C181.404 231.16 181.782 231.426 182.081 231.778C182.38 232.13 182.556 232.573 182.609 233.106H181.057C180.993 232.818 180.806 232.589 180.497 232.418C180.198 232.237 179.82 232.146 179.361 232.146C179.201 232.146 179.025 232.157 178.833 232.178C178.652 232.2 178.476 232.248 178.305 232.322C178.134 232.397 177.996 232.504 177.889 232.642C177.782 232.77 177.729 232.941 177.729 233.154C177.729 233.357 177.777 233.528 177.873 233.666C177.98 233.805 178.129 233.917 178.321 234.002C178.524 234.088 178.753 234.157 179.009 234.21C179.372 234.296 179.761 234.376 180.177 234.45C180.604 234.525 180.95 234.605 181.217 234.69C181.569 234.786 181.868 234.925 182.113 235.106C182.369 235.288 182.561 235.517 182.689 235.794C182.828 236.072 182.897 236.408 182.897 236.802C182.897 237.314 182.796 237.736 182.593 238.066C182.39 238.386 182.118 238.642 181.777 238.834C181.446 239.026 181.073 239.16 180.657 239.234C180.252 239.309 179.852 239.346 179.457 239.346Z" fill="black"/>
<rect x="24" y="103.25" width="32" height="61" fill="white"/>
<rect x="72" y="100.25" width="32" height="64" fill="white"/>
<rect x="120" y="42.2505" width="32" height="122" fill="black"/>
<rect x="168" y="134.25" width="32" height="30" fill="white"/>
</svg>
